<svg width="1037" height="299" viewBox="0 0 1037 299" fill="none" xmlns="http://www.w3.org/2000/svg">
<rect x="0.000488281" y="129.467" width="201" height="169" fill="#C12323"/>
<rect x="100.533" y="29" width="142.175" height="142.175" transform="rotate(45 100.533 29)" fill="#C12323"/>
<path d="M30.1364 258.5V269H27.4545V245.727H30.1364V254.273H30.3636C30.7727 253.371 31.3864 252.655 32.2045 252.125C33.0303 251.587 34.1288 251.318 35.5 251.318C36.6894 251.318 37.7311 251.557 38.625 252.034C39.5189 252.504 40.2121 253.227 40.7045 254.205C41.2045 255.174 41.4545 256.409 41.4545 257.909V269H38.7727V258.091C38.7727 256.705 38.4129 255.633 37.6932 254.875C36.9811 254.11 35.9924 253.727 34.7273 253.727C33.8485 253.727 33.0606 253.913 32.3636 254.284C31.6742 254.655 31.1288 255.197 30.7273 255.909C30.3333 256.621 30.1364 257.485 30.1364 258.5ZM53.4517 269.364C51.8759 269.364 50.4934 268.989 49.304 268.239C48.1222 267.489 47.1979 266.439 46.5312 265.091C45.8722 263.742 45.5426 262.167 45.5426 260.364C45.5426 258.545 45.8722 256.958 46.5312 255.602C47.1979 254.246 48.1222 253.193 49.304 252.443C50.4934 251.693 51.8759 251.318 53.4517 251.318C55.0275 251.318 56.4063 251.693 57.5881 252.443C58.7775 253.193 59.7017 254.246 60.3608 255.602C61.0275 256.958 61.3608 258.545 61.3608 260.364C61.3608 262.167 61.0275 263.742 60.3608 265.091C59.7017 266.439 58.7775 267.489 57.5881 268.239C56.4063 268.989 55.0275 269.364 53.4517 269.364ZM53.4517 266.955C54.6487 266.955 55.6335 266.648 56.4062 266.034C57.179 265.42 57.7509 264.614 58.1222 263.614C58.4934 262.614 58.679 261.53 58.679 260.364C58.679 259.197 58.4934 258.11 58.1222 257.102C57.7509 256.095 57.179 255.28 56.4062 254.659C55.6335 254.038 54.6487 253.727 53.4517 253.727C52.2547 253.727 51.2699 254.038 50.4972 254.659C49.7244 255.28 49.1525 256.095 48.7812 257.102C48.41 258.11 48.2244 259.197 48.2244 260.364C48.2244 261.53 48.41 262.614 48.7812 263.614C49.1525 264.614 49.7244 265.42 50.4972 266.034C51.2699 266.648 52.2547 266.955 53.4517 266.955ZM65.4545 269V251.545H68.0455V254.273H68.2727C68.6364 253.341 69.2235 252.617 70.0341 252.102C70.8447 251.58 71.8182 251.318 72.9545 251.318C74.1061 251.318 75.0644 251.58 75.8295 252.102C76.6023 252.617 77.2045 253.341 77.6364 254.273H77.8182C78.2652 253.371 78.9356 252.655 79.8295 252.125C80.7235 251.587 81.7955 251.318 83.0455 251.318C84.6061 251.318 85.8826 251.807 86.875 252.784C87.8674 253.754 88.3636 255.265 88.3636 257.318V269H85.6818V257.318C85.6818 256.03 85.3295 255.11 84.625 254.557C83.9205 254.004 83.0909 253.727 82.1364 253.727C80.9091 253.727 79.9583 254.098 79.2841 254.841C78.6098 255.576 78.2727 256.508 78.2727 257.636V269H75.5455V257.045C75.5455 256.053 75.2235 255.254 74.5795 254.648C73.9356 254.034 73.1061 253.727 72.0909 253.727C71.3939 253.727 70.7424 253.913 70.1364 254.284C69.5379 254.655 69.053 255.17 68.6818 255.83C68.3182 256.481 68.1364 257.235 68.1364 258.091V269H65.4545ZM100.585 269.364C98.9034 269.364 97.4527 268.992 96.233 268.25C95.0208 267.5 94.0852 266.455 93.4261 265.114C92.7746 263.765 92.4489 262.197 92.4489 260.409C92.4489 258.621 92.7746 257.045 93.4261 255.682C94.0852 254.311 95.0019 253.242 96.1761 252.477C97.358 251.705 98.7367 251.318 100.312 251.318C101.222 251.318 102.119 251.47 103.006 251.773C103.892 252.076 104.699 252.568 105.426 253.25C106.153 253.924 106.733 254.818 107.165 255.932C107.597 257.045 107.812 258.417 107.812 260.045V261.182H94.358V258.864H105.085C105.085 257.879 104.888 257 104.494 256.227C104.108 255.455 103.555 254.845 102.835 254.398C102.123 253.951 101.282 253.727 100.312 253.727C99.2443 253.727 98.3201 253.992 97.5398 254.523C96.767 255.045 96.1723 255.727 95.7557 256.568C95.339 257.409 95.1307 258.311 95.1307 259.273V260.818C95.1307 262.136 95.358 263.254 95.8125 264.17C96.2746 265.08 96.9148 265.773 97.733 266.25C98.5511 266.72 99.5019 266.955 100.585 266.955C101.29 266.955 101.926 266.856 102.494 266.659C103.07 266.455 103.566 266.152 103.983 265.75C104.4 265.341 104.722 264.833 104.949 264.227L107.54 264.955C107.267 265.833 106.809 266.606 106.165 267.273C105.521 267.932 104.725 268.447 103.778 268.818C102.831 269.182 101.767 269.364 100.585 269.364Z" fill="white"/>
<path d="M293.545 174.364C291.909 174.364 290.5 173.977 289.318 173.205C288.136 172.432 287.227 171.367 286.591 170.011C285.955 168.655 285.636 167.106 285.636 165.364C285.636 163.591 285.962 162.027 286.614 160.67C287.273 159.307 288.189 158.242 289.364 157.477C290.545 156.705 291.924 156.318 293.5 156.318C294.727 156.318 295.833 156.545 296.818 157C297.803 157.455 298.61 158.091 299.239 158.909C299.867 159.727 300.258 160.682 300.409 161.773H297.727C297.523 160.977 297.068 160.273 296.364 159.659C295.667 159.038 294.727 158.727 293.545 158.727C292.5 158.727 291.583 159 290.795 159.545C290.015 160.083 289.405 160.845 288.966 161.83C288.534 162.807 288.318 163.955 288.318 165.273C288.318 166.621 288.53 167.795 288.955 168.795C289.386 169.795 289.992 170.572 290.773 171.125C291.561 171.678 292.485 171.955 293.545 171.955C294.242 171.955 294.875 171.833 295.443 171.591C296.011 171.348 296.492 171 296.886 170.545C297.28 170.091 297.561 169.545 297.727 168.909H300.409C300.258 169.939 299.883 170.867 299.284 171.693C298.693 172.511 297.909 173.163 296.932 173.648C295.962 174.125 294.833 174.364 293.545 174.364ZM311.42 174.364C309.845 174.364 308.462 173.989 307.273 173.239C306.091 172.489 305.167 171.439 304.5 170.091C303.841 168.742 303.511 167.167 303.511 165.364C303.511 163.545 303.841 161.958 304.5 160.602C305.167 159.246 306.091 158.193 307.273 157.443C308.462 156.693 309.845 156.318 311.42 156.318C312.996 156.318 314.375 156.693 315.557 157.443C316.746 158.193 317.67 159.246 318.33 160.602C318.996 161.958 319.33 163.545 319.33 165.364C319.33 167.167 318.996 168.742 318.33 170.091C317.67 171.439 316.746 172.489 315.557 173.239C314.375 173.989 312.996 174.364 311.42 174.364ZM311.42 171.955C312.617 171.955 313.602 171.648 314.375 171.034C315.148 170.42 315.72 169.614 316.091 168.614C316.462 167.614 316.648 166.53 316.648 165.364C316.648 164.197 316.462 163.11 316.091 162.102C315.72 161.095 315.148 160.28 314.375 159.659C313.602 159.038 312.617 158.727 311.42 158.727C310.223 158.727 309.239 159.038 308.466 159.659C307.693 160.28 307.121 161.095 306.75 162.102C306.379 163.11 306.193 164.197 306.193 165.364C306.193 166.53 306.379 167.614 306.75 168.614C307.121 169.614 307.693 170.42 308.466 171.034C309.239 171.648 310.223 171.955 311.42 171.955ZM323.423 174V156.545H326.014V159.273H326.241C326.605 158.341 327.192 157.617 328.003 157.102C328.813 156.58 329.787 156.318 330.923 156.318C332.075 156.318 333.033 156.58 333.798 157.102C334.571 157.617 335.173 158.341 335.605 159.273H335.787C336.234 158.371 336.904 157.655 337.798 157.125C338.692 156.587 339.764 156.318 341.014 156.318C342.575 156.318 343.851 156.807 344.844 157.784C345.836 158.754 346.332 160.265 346.332 162.318V174H343.651V162.318C343.651 161.03 343.298 160.11 342.594 159.557C341.889 159.004 341.06 158.727 340.105 158.727C338.878 158.727 337.927 159.098 337.253 159.841C336.579 160.576 336.241 161.508 336.241 162.636V174H333.514V162.045C333.514 161.053 333.192 160.254 332.548 159.648C331.904 159.034 331.075 158.727 330.06 158.727C329.363 158.727 328.711 158.913 328.105 159.284C327.507 159.655 327.022 160.17 326.651 160.83C326.287 161.481 326.105 162.235 326.105 163.091V174H323.423ZM351.236 174V156.545H353.827V159.273H354.054C354.418 158.341 355.005 157.617 355.815 157.102C356.626 156.58 357.599 156.318 358.736 156.318C359.887 156.318 360.846 156.58 361.611 157.102C362.384 157.617 362.986 158.341 363.418 159.273H363.599C364.046 158.371 364.717 157.655 365.611 157.125C366.505 156.587 367.577 156.318 368.827 156.318C370.387 156.318 371.664 156.807 372.656 157.784C373.649 158.754 374.145 160.265 374.145 162.318V174H371.463V162.318C371.463 161.03 371.111 160.11 370.406 159.557C369.702 159.004 368.872 158.727 367.918 158.727C366.69 158.727 365.74 159.098 365.065 159.841C364.391 160.576 364.054 161.508 364.054 162.636V174H361.327V162.045C361.327 161.053 361.005 160.254 360.361 159.648C359.717 159.034 358.887 158.727 357.872 158.727C357.175 158.727 356.524 158.913 355.918 159.284C355.319 159.655 354.834 160.17 354.463 160.83C354.099 161.481 353.918 162.235 353.918 163.091V174H351.236ZM390.048 166.864V156.545H392.73V174H390.048V171.045H389.866C389.457 171.932 388.821 172.686 387.957 173.307C387.094 173.92 386.003 174.227 384.685 174.227C383.594 174.227 382.624 173.989 381.776 173.511C380.927 173.027 380.26 172.299 379.776 171.33C379.291 170.352 379.048 169.121 379.048 167.636V156.545H381.73V167.455C381.73 168.727 382.086 169.742 382.798 170.5C383.518 171.258 384.435 171.636 385.548 171.636C386.215 171.636 386.893 171.466 387.582 171.125C388.279 170.784 388.863 170.261 389.332 169.557C389.81 168.852 390.048 167.955 390.048 166.864ZM405.233 156.545V158.818H396.188V156.545H405.233ZM398.824 152.364H401.506V169C401.506 169.758 401.616 170.326 401.835 170.705C402.063 171.076 402.35 171.326 402.699 171.455C403.055 171.576 403.43 171.636 403.824 171.636C404.119 171.636 404.362 171.621 404.551 171.591C404.741 171.553 404.892 171.523 405.006 171.5L405.551 173.909C405.369 173.977 405.116 174.045 404.79 174.114C404.464 174.189 404.051 174.227 403.551 174.227C402.794 174.227 402.051 174.064 401.324 173.739C400.604 173.413 400.006 172.917 399.528 172.25C399.059 171.583 398.824 170.742 398.824 169.727V152.364ZM416.398 174.364C414.716 174.364 413.265 173.992 412.045 173.25C410.833 172.5 409.898 171.455 409.239 170.114C408.587 168.765 408.261 167.197 408.261 165.409C408.261 163.621 408.587 162.045 409.239 160.682C409.898 159.311 410.814 158.242 411.989 157.477C413.17 156.705 414.549 156.318 416.125 156.318C417.034 156.318 417.932 156.47 418.818 156.773C419.705 157.076 420.511 157.568 421.239 158.25C421.966 158.924 422.545 159.818 422.977 160.932C423.409 162.045 423.625 163.417 423.625 165.045V166.182H410.17V163.864H420.898C420.898 162.879 420.701 162 420.307 161.227C419.92 160.455 419.367 159.845 418.648 159.398C417.936 158.951 417.095 158.727 416.125 158.727C415.057 158.727 414.133 158.992 413.352 159.523C412.58 160.045 411.985 160.727 411.568 161.568C411.152 162.409 410.943 163.311 410.943 164.273V165.818C410.943 167.136 411.17 168.254 411.625 169.17C412.087 170.08 412.727 170.773 413.545 171.25C414.364 171.72 415.314 171.955 416.398 171.955C417.102 171.955 417.739 171.856 418.307 171.659C418.883 171.455 419.379 171.152 419.795 170.75C420.212 170.341 420.534 169.833 420.761 169.227L423.352 169.955C423.08 170.833 422.621 171.606 421.977 172.273C421.333 172.932 420.538 173.447 419.591 173.818C418.644 174.182 417.58 174.364 416.398 174.364ZM444.295 156.545V158.818H435.25V156.545H444.295ZM437.886 152.364H440.568V169C440.568 169.758 440.678 170.326 440.898 170.705C441.125 171.076 441.413 171.326 441.761 171.455C442.117 171.576 442.492 171.636 442.886 171.636C443.182 171.636 443.424 171.621 443.614 171.591C443.803 171.553 443.955 171.523 444.068 171.5L444.614 173.909C444.432 173.977 444.178 174.045 443.852 174.114C443.527 174.189 443.114 174.227 442.614 174.227C441.856 174.227 441.114 174.064 440.386 173.739C439.667 173.413 439.068 172.917 438.591 172.25C438.121 171.583 437.886 170.742 437.886 169.727V152.364ZM455.233 174.364C453.657 174.364 452.275 173.989 451.085 173.239C449.903 172.489 448.979 171.439 448.312 170.091C447.653 168.742 447.324 167.167 447.324 165.364C447.324 163.545 447.653 161.958 448.312 160.602C448.979 159.246 449.903 158.193 451.085 157.443C452.275 156.693 453.657 156.318 455.233 156.318C456.809 156.318 458.188 156.693 459.369 157.443C460.559 158.193 461.483 159.246 462.142 160.602C462.809 161.958 463.142 163.545 463.142 165.364C463.142 167.167 462.809 168.742 462.142 170.091C461.483 171.439 460.559 172.489 459.369 173.239C458.188 173.989 456.809 174.364 455.233 174.364ZM455.233 171.955C456.43 171.955 457.415 171.648 458.188 171.034C458.96 170.42 459.532 169.614 459.903 168.614C460.275 167.614 460.46 166.53 460.46 165.364C460.46 164.197 460.275 163.11 459.903 162.102C459.532 161.095 458.96 160.28 458.188 159.659C457.415 159.038 456.43 158.727 455.233 158.727C454.036 158.727 453.051 159.038 452.278 159.659C451.506 160.28 450.934 161.095 450.562 162.102C450.191 163.11 450.006 164.197 450.006 165.364C450.006 166.53 450.191 167.614 450.562 168.614C450.934 169.614 451.506 170.42 452.278 171.034C453.051 171.648 454.036 171.955 455.233 171.955ZM480.19 174L474.872 156.545H477.69L481.463 169.909H481.645L485.372 156.545H488.236L491.918 169.864H492.099L495.872 156.545H498.69L493.372 174H490.736L486.918 160.591H486.645L482.827 174H480.19ZM508.733 174.364C507.157 174.364 505.775 173.989 504.585 173.239C503.403 172.489 502.479 171.439 501.812 170.091C501.153 168.742 500.824 167.167 500.824 165.364C500.824 163.545 501.153 161.958 501.812 160.602C502.479 159.246 503.403 158.193 504.585 157.443C505.775 156.693 507.157 156.318 508.733 156.318C510.309 156.318 511.688 156.693 512.869 157.443C514.059 158.193 514.983 159.246 515.642 160.602C516.309 161.958 516.642 163.545 516.642 165.364C516.642 167.167 516.309 168.742 515.642 170.091C514.983 171.439 514.059 172.489 512.869 173.239C511.688 173.989 510.309 174.364 508.733 174.364ZM508.733 171.955C509.93 171.955 510.915 171.648 511.688 171.034C512.46 170.42 513.032 169.614 513.403 168.614C513.775 167.614 513.96 166.53 513.96 165.364C513.96 164.197 513.775 163.11 513.403 162.102C513.032 161.095 512.46 160.28 511.688 159.659C510.915 159.038 509.93 158.727 508.733 158.727C507.536 158.727 506.551 159.038 505.778 159.659C505.006 160.28 504.434 161.095 504.062 162.102C503.691 163.11 503.506 164.197 503.506 165.364C503.506 166.53 503.691 167.614 504.062 168.614C504.434 169.614 505.006 170.42 505.778 171.034C506.551 171.648 507.536 171.955 508.733 171.955ZM520.736 174V156.545H523.327V159.182H523.509C523.827 158.318 524.402 157.617 525.236 157.08C526.069 156.542 527.009 156.273 528.054 156.273C528.251 156.273 528.497 156.277 528.793 156.284C529.088 156.292 529.312 156.303 529.463 156.318V159.045C529.372 159.023 529.164 158.989 528.838 158.943C528.52 158.89 528.183 158.864 527.827 158.864C526.978 158.864 526.221 159.042 525.554 159.398C524.895 159.746 524.372 160.231 523.986 160.852C523.607 161.466 523.418 162.167 523.418 162.955V174H520.736ZM535.142 167.636L535.097 164.318H535.642L543.278 156.545H546.597L538.46 164.773H538.233L535.142 167.636ZM532.642 174V150.727H535.324V174H532.642ZM543.733 174L536.915 165.364L538.824 163.5L547.142 174H543.733Z" fill="#C12323"/>
<path d="M649.014 87.3636C647.438 87.3636 646.056 86.9886 644.866 86.2386C643.685 85.4886 642.76 84.4394 642.094 83.0909C641.435 81.7424 641.105 80.1667 641.105 78.3636C641.105 76.5455 641.435 74.9583 642.094 73.6023C642.76 72.2462 643.685 71.1932 644.866 70.4432C646.056 69.6932 647.438 69.3182 649.014 69.3182C650.59 69.3182 651.969 69.6932 653.151 70.4432C654.34 71.1932 655.264 72.2462 655.923 73.6023C656.59 74.9583 656.923 76.5455 656.923 78.3636C656.923 80.1667 656.59 81.7424 655.923 83.0909C655.264 84.4394 654.34 85.4886 653.151 86.2386C651.969 86.9886 650.59 87.3636 649.014 87.3636ZM649.014 84.9545C650.211 84.9545 651.196 84.6477 651.969 84.0341C652.741 83.4205 653.313 82.6136 653.685 81.6136C654.056 80.6136 654.241 79.5303 654.241 78.3636C654.241 77.197 654.056 76.1098 653.685 75.1023C653.313 74.0947 652.741 73.2803 651.969 72.6591C651.196 72.0379 650.211 71.7273 649.014 71.7273C647.817 71.7273 646.832 72.0379 646.06 72.6591C645.287 73.2803 644.715 74.0947 644.344 75.1023C643.973 76.1098 643.787 77.197 643.787 78.3636C643.787 79.5303 643.973 80.6136 644.344 81.6136C644.715 82.6136 645.287 83.4205 646.06 84.0341C646.832 84.6477 647.817 84.9545 649.014 84.9545ZM668.79 69.5455V71.8182H659.381V69.5455H668.79ZM662.199 87V67.1364C662.199 66.1364 662.434 65.303 662.903 64.6364C663.373 63.9697 663.983 63.4697 664.733 63.1364C665.483 62.803 666.275 62.6364 667.108 62.6364C667.767 62.6364 668.305 62.6894 668.722 62.7955C669.138 62.9015 669.449 63 669.653 63.0909L668.881 65.4091C668.744 65.3636 668.555 65.3068 668.312 65.2386C668.078 65.1705 667.767 65.1364 667.381 65.1364C666.494 65.1364 665.854 65.3598 665.46 65.8068C665.074 66.2538 664.881 66.9091 664.881 67.7727V87H662.199ZM689.139 69.5455V71.8182H680.094V69.5455H689.139ZM682.73 65.3636H685.412V82C685.412 82.7576 685.522 83.3258 685.741 83.7045C685.969 84.0758 686.257 84.3258 686.605 84.4545C686.961 84.5758 687.336 84.6364 687.73 84.6364C688.026 84.6364 688.268 84.6212 688.457 84.5909C688.647 84.553 688.798 84.5227 688.912 84.5L689.457 86.9091C689.276 86.9773 689.022 87.0455 688.696 87.1136C688.37 87.1894 687.957 87.2273 687.457 87.2273C686.7 87.2273 685.957 87.0644 685.23 86.7386C684.51 86.4129 683.912 85.9167 683.435 85.25C682.965 84.5833 682.73 83.7424 682.73 82.7273V65.3636ZM700.077 87.3636C698.501 87.3636 697.118 86.9886 695.929 86.2386C694.747 85.4886 693.823 84.4394 693.156 83.0909C692.497 81.7424 692.168 80.1667 692.168 78.3636C692.168 76.5455 692.497 74.9583 693.156 73.6023C693.823 72.2462 694.747 71.1932 695.929 70.4432C697.118 69.6932 698.501 69.3182 700.077 69.3182C701.652 69.3182 703.031 69.6932 704.213 70.4432C705.402 71.1932 706.327 72.2462 706.986 73.6023C707.652 74.9583 707.986 76.5455 707.986 78.3636C707.986 80.1667 707.652 81.7424 706.986 83.0909C706.327 84.4394 705.402 85.4886 704.213 86.2386C703.031 86.9886 701.652 87.3636 700.077 87.3636ZM700.077 84.9545C701.274 84.9545 702.259 84.6477 703.031 84.0341C703.804 83.4205 704.376 82.6136 704.747 81.6136C705.118 80.6136 705.304 79.5303 705.304 78.3636C705.304 77.197 705.118 76.1098 704.747 75.1023C704.376 74.0947 703.804 73.2803 703.031 72.6591C702.259 72.0379 701.274 71.7273 700.077 71.7273C698.88 71.7273 697.895 72.0379 697.122 72.6591C696.349 73.2803 695.777 74.0947 695.406 75.1023C695.035 76.1098 694.849 77.197 694.849 78.3636C694.849 79.5303 695.035 80.6136 695.406 81.6136C695.777 82.6136 696.349 83.4205 697.122 84.0341C697.895 84.6477 698.88 84.9545 700.077 84.9545ZM719.67 69.5455V71.8182H710.625V69.5455H719.67ZM713.261 65.3636H715.943V82C715.943 82.7576 716.053 83.3258 716.273 83.7045C716.5 84.0758 716.788 84.3258 717.136 84.4545C717.492 84.5758 717.867 84.6364 718.261 84.6364C718.557 84.6364 718.799 84.6212 718.989 84.5909C719.178 84.553 719.33 84.5227 719.443 84.5L719.989 86.9091C719.807 86.9773 719.553 87.0455 719.227 87.1136C718.902 87.1894 718.489 87.2273 717.989 87.2273C717.231 87.2273 716.489 87.0644 715.761 86.7386C715.042 86.4129 714.443 85.9167 713.966 85.25C713.496 84.5833 713.261 83.7424 713.261 82.7273V65.3636ZM728.841 87.4091C727.735 87.4091 726.731 87.2008 725.83 86.7841C724.928 86.3598 724.212 85.75 723.682 84.9545C723.152 84.1515 722.886 83.1818 722.886 82.0455C722.886 81.0455 723.083 80.2348 723.477 79.6136C723.871 78.9848 724.398 78.4924 725.057 78.1364C725.716 77.7803 726.443 77.5152 727.239 77.3409C728.042 77.1591 728.848 77.0152 729.659 76.9091C730.72 76.7727 731.58 76.6705 732.239 76.6023C732.905 76.5265 733.39 76.4015 733.693 76.2273C734.004 76.053 734.159 75.75 734.159 75.3182V75.2273C734.159 74.1061 733.852 73.2348 733.239 72.6136C732.633 71.9924 731.712 71.6818 730.477 71.6818C729.197 71.6818 728.193 71.9621 727.466 72.5227C726.739 73.0833 726.227 73.6818 725.932 74.3182L723.386 73.4091C723.841 72.3485 724.447 71.5227 725.205 70.9318C725.97 70.3333 726.803 69.9167 727.705 69.6818C728.614 69.4394 729.508 69.3182 730.386 69.3182C730.947 69.3182 731.591 69.3864 732.318 69.5227C733.053 69.6515 733.761 69.9205 734.443 70.3295C735.133 70.7386 735.705 71.3561 736.159 72.1818C736.614 73.0076 736.841 74.1136 736.841 75.5V87H734.159V84.6364H734.023C733.841 85.0152 733.538 85.4205 733.114 85.8523C732.689 86.2841 732.125 86.6515 731.42 86.9545C730.716 87.2576 729.856 87.4091 728.841 87.4091ZM729.25 85C730.311 85 731.205 84.7917 731.932 84.375C732.667 83.9583 733.22 83.4205 733.591 82.7614C733.97 82.1023 734.159 81.4091 734.159 80.6818V78.2273C734.045 78.3636 733.795 78.4886 733.409 78.6023C733.03 78.7083 732.591 78.803 732.091 78.8864C731.598 78.9621 731.117 79.0303 730.648 79.0909C730.186 79.1439 729.811 79.1894 729.523 79.2273C728.826 79.3182 728.174 79.4659 727.568 79.6705C726.97 79.8674 726.485 80.1667 726.114 80.5682C725.75 80.9621 725.568 81.5 725.568 82.1818C725.568 83.1136 725.913 83.8182 726.602 84.2955C727.299 84.7652 728.182 85 729.25 85ZM744.418 63.7273V87H741.736V63.7273H744.418ZM761.011 76.5V87H758.33V63.7273H761.011V72.2727H761.239C761.648 71.3712 762.261 70.6553 763.08 70.125C763.905 69.5871 765.004 69.3182 766.375 69.3182C767.564 69.3182 768.606 69.5568 769.5 70.0341C770.394 70.5038 771.087 71.2273 771.58 72.2045C772.08 73.1742 772.33 74.4091 772.33 75.9091V87H769.648V76.0909C769.648 74.7045 769.288 73.6326 768.568 72.875C767.856 72.1098 766.867 71.7273 765.602 71.7273C764.723 71.7273 763.936 71.9129 763.239 72.2841C762.549 72.6553 762.004 73.197 761.602 73.9091C761.208 74.6212 761.011 75.4848 761.011 76.5ZM784.327 87.3636C782.751 87.3636 781.368 86.9886 780.179 86.2386C778.997 85.4886 778.073 84.4394 777.406 83.0909C776.747 81.7424 776.418 80.1667 776.418 78.3636C776.418 76.5455 776.747 74.9583 777.406 73.6023C778.073 72.2462 778.997 71.1932 780.179 70.4432C781.368 69.6932 782.751 69.3182 784.327 69.3182C785.902 69.3182 787.281 69.6932 788.463 70.4432C789.652 71.1932 790.577 72.2462 791.236 73.6023C791.902 74.9583 792.236 76.5455 792.236 78.3636C792.236 80.1667 791.902 81.7424 791.236 83.0909C790.577 84.4394 789.652 85.4886 788.463 86.2386C787.281 86.9886 785.902 87.3636 784.327 87.3636ZM784.327 84.9545C785.524 84.9545 786.509 84.6477 787.281 84.0341C788.054 83.4205 788.626 82.6136 788.997 81.6136C789.368 80.6136 789.554 79.5303 789.554 78.3636C789.554 77.197 789.368 76.1098 788.997 75.1023C788.626 74.0947 788.054 73.2803 787.281 72.6591C786.509 72.0379 785.524 71.7273 784.327 71.7273C783.13 71.7273 782.145 72.0379 781.372 72.6591C780.599 73.2803 780.027 74.0947 779.656 75.1023C779.285 76.1098 779.099 77.197 779.099 78.3636C779.099 79.5303 779.285 80.6136 779.656 81.6136C780.027 82.6136 780.599 83.4205 781.372 84.0341C782.145 84.6477 783.13 84.9545 784.327 84.9545ZM807.33 79.8636V69.5455H810.011V87H807.33V84.0455H807.148C806.739 84.9318 806.102 85.6856 805.239 86.3068C804.375 86.9205 803.284 87.2273 801.966 87.2273C800.875 87.2273 799.905 86.9886 799.057 86.5114C798.208 86.0265 797.542 85.2992 797.057 84.3295C796.572 83.3523 796.33 82.1212 796.33 80.6364V69.5455H799.011V80.4545C799.011 81.7273 799.367 82.7424 800.08 83.5C800.799 84.2576 801.716 84.6364 802.83 84.6364C803.496 84.6364 804.174 84.4659 804.864 84.125C805.561 83.7841 806.144 83.2614 806.614 82.5568C807.091 81.8523 807.33 80.9545 807.33 79.8636ZM827.287 73.4545L824.878 74.1364C824.726 73.7348 824.503 73.3447 824.207 72.9659C823.92 72.5795 823.526 72.2614 823.026 72.0114C822.526 71.7614 821.885 71.6364 821.105 71.6364C820.037 71.6364 819.147 71.8826 818.435 72.375C817.73 72.8598 817.378 73.4773 817.378 74.2273C817.378 74.8939 817.62 75.4205 818.105 75.8068C818.59 76.1932 819.348 76.5152 820.378 76.7727L822.969 77.4091C824.529 77.7879 825.692 78.3674 826.457 79.1477C827.223 79.9205 827.605 80.9167 827.605 82.1364C827.605 83.1364 827.317 84.0303 826.741 84.8182C826.173 85.6061 825.378 86.2273 824.355 86.6818C823.332 87.1364 822.143 87.3636 820.787 87.3636C819.007 87.3636 817.533 86.9773 816.366 86.2045C815.2 85.4318 814.461 84.303 814.151 82.8182L816.696 82.1818C816.938 83.1212 817.397 83.8258 818.071 84.2955C818.753 84.7652 819.643 85 820.741 85C821.991 85 822.984 84.7348 823.719 84.2045C824.461 83.6667 824.832 83.0227 824.832 82.2727C824.832 81.6667 824.62 81.1591 824.196 80.75C823.772 80.3333 823.12 80.0227 822.241 79.8182L819.332 79.1364C817.734 78.7576 816.56 78.1705 815.81 77.375C815.067 76.572 814.696 75.5682 814.696 74.3636C814.696 73.3788 814.973 72.5076 815.526 71.75C816.086 70.9924 816.848 70.3977 817.81 69.9659C818.779 69.5341 819.878 69.3182 821.105 69.3182C822.832 69.3182 824.188 69.697 825.173 70.4545C826.166 71.2121 826.87 72.2121 827.287 73.4545ZM838.96 87.3636C837.278 87.3636 835.828 86.9924 834.608 86.25C833.396 85.5 832.46 84.4545 831.801 83.1136C831.15 81.7652 830.824 80.197 830.824 78.4091C830.824 76.6212 831.15 75.0455 831.801 73.6818C832.46 72.3106 833.377 71.2424 834.551 70.4773C835.733 69.7045 837.112 69.3182 838.688 69.3182C839.597 69.3182 840.494 69.4697 841.381 69.7727C842.267 70.0758 843.074 70.5682 843.801 71.25C844.528 71.9242 845.108 72.8182 845.54 73.9318C845.972 75.0455 846.188 76.4167 846.188 78.0455V79.1818H832.733V76.8636H843.46C843.46 75.8788 843.263 75 842.869 74.2273C842.483 73.4545 841.93 72.8447 841.21 72.3977C840.498 71.9508 839.657 71.7273 838.688 71.7273C837.619 71.7273 836.695 71.9924 835.915 72.5227C835.142 73.0455 834.547 73.7273 834.131 74.5682C833.714 75.4091 833.506 76.3106 833.506 77.2727V78.8182C833.506 80.1364 833.733 81.2538 834.188 82.1705C834.65 83.0795 835.29 83.7727 836.108 84.25C836.926 84.7197 837.877 84.9545 838.96 84.9545C839.665 84.9545 840.301 84.8561 840.869 84.6591C841.445 84.4545 841.941 84.1515 842.358 83.75C842.775 83.3409 843.097 82.8333 843.324 82.2273L845.915 82.9545C845.642 83.8333 845.184 84.6061 844.54 85.2727C843.896 85.9318 843.1 86.447 842.153 86.8182C841.206 87.1818 840.142 87.3636 838.96 87.3636ZM852.949 76.5V87H850.267V63.7273H852.949V72.2727H853.176C853.585 71.3712 854.199 70.6553 855.017 70.125C855.843 69.5871 856.941 69.3182 858.312 69.3182C859.502 69.3182 860.544 69.5568 861.438 70.0341C862.331 70.5038 863.025 71.2273 863.517 72.2045C864.017 73.1742 864.267 74.4091 864.267 75.9091V87H861.585V76.0909C861.585 74.7045 861.225 73.6326 860.506 72.875C859.794 72.1098 858.805 71.7273 857.54 71.7273C856.661 71.7273 855.873 71.9129 855.176 72.2841C854.487 72.6553 853.941 73.197 853.54 73.9091C853.146 74.6212 852.949 75.4848 852.949 76.5ZM876.264 87.3636C874.688 87.3636 873.306 86.9886 872.116 86.2386C870.935 85.4886 870.01 84.4394 869.344 83.0909C868.685 81.7424 868.355 80.1667 868.355 78.3636C868.355 76.5455 868.685 74.9583 869.344 73.6023C870.01 72.2462 870.935 71.1932 872.116 70.4432C873.306 69.6932 874.688 69.3182 876.264 69.3182C877.84 69.3182 879.219 69.6932 880.401 70.4432C881.59 71.1932 882.514 72.2462 883.173 73.6023C883.84 74.9583 884.173 76.5455 884.173 78.3636C884.173 80.1667 883.84 81.7424 883.173 83.0909C882.514 84.4394 881.59 85.4886 880.401 86.2386C879.219 86.9886 877.84 87.3636 876.264 87.3636ZM876.264 84.9545C877.461 84.9545 878.446 84.6477 879.219 84.0341C879.991 83.4205 880.563 82.6136 880.935 81.6136C881.306 80.6136 881.491 79.5303 881.491 78.3636C881.491 77.197 881.306 76.1098 880.935 75.1023C880.563 74.0947 879.991 73.2803 879.219 72.6591C878.446 72.0379 877.461 71.7273 876.264 71.7273C875.067 71.7273 874.082 72.0379 873.31 72.6591C872.537 73.2803 871.965 74.0947 871.594 75.1023C871.223 76.1098 871.037 77.197 871.037 78.3636C871.037 79.5303 871.223 80.6136 871.594 81.6136C871.965 82.6136 872.537 83.4205 873.31 84.0341C874.082 84.6477 875.067 84.9545 876.264 84.9545ZM890.949 63.7273V87H888.267V63.7273H890.949ZM902.452 87.3636C900.997 87.3636 899.713 86.9962 898.599 86.2614C897.486 85.5189 896.615 84.4735 895.986 83.125C895.357 81.7689 895.043 80.1667 895.043 78.3182C895.043 76.4848 895.357 74.8939 895.986 73.5455C896.615 72.197 897.49 71.1553 898.611 70.4205C899.732 69.6856 901.027 69.3182 902.497 69.3182C903.634 69.3182 904.531 69.5076 905.19 69.8864C905.857 70.2576 906.365 70.6818 906.713 71.1591C907.069 71.6288 907.346 72.0152 907.543 72.3182H907.77V63.7273H910.452V87H907.861V84.3182H907.543C907.346 84.6364 907.065 85.0379 906.702 85.5227C906.338 86 905.819 86.428 905.145 86.8068C904.471 87.178 903.573 87.3636 902.452 87.3636ZM902.815 84.9545C903.891 84.9545 904.8 84.6742 905.543 84.1136C906.285 83.5455 906.849 82.7614 907.236 81.7614C907.622 80.7538 907.815 79.5909 907.815 78.2727C907.815 76.9697 907.626 75.8295 907.247 74.8523C906.868 73.8674 906.308 73.1023 905.565 72.5568C904.823 72.0038 903.906 71.7273 902.815 71.7273C901.679 71.7273 900.732 72.0189 899.974 72.6023C899.224 73.178 898.66 73.9621 898.281 74.9545C897.91 75.9394 897.724 77.0455 897.724 78.2727C897.724 79.5152 897.914 80.6439 898.293 81.6591C898.679 82.6667 899.247 83.4697 899.997 84.0682C900.755 84.6591 901.694 84.9545 902.815 84.9545ZM924.736 87V69.5455H927.418V87H924.736ZM926.099 66.6364C925.577 66.6364 925.126 66.4583 924.747 66.1023C924.376 65.7462 924.19 65.3182 924.19 64.8182C924.19 64.3182 924.376 63.8902 924.747 63.5341C925.126 63.178 925.577 63 926.099 63C926.622 63 927.069 63.178 927.44 63.5341C927.819 63.8902 928.009 64.3182 928.009 64.8182C928.009 65.3182 927.819 65.7462 927.44 66.1023C927.069 66.4583 926.622 66.6364 926.099 66.6364ZM935.011 76.5V87H932.33V69.5455H934.92V72.2727H935.148C935.557 71.3864 936.178 70.6742 937.011 70.1364C937.845 69.5909 938.92 69.3182 940.239 69.3182C941.42 69.3182 942.455 69.5606 943.341 70.0455C944.227 70.5227 944.917 71.25 945.409 72.2273C945.902 73.197 946.148 74.4242 946.148 75.9091V87H943.466V76.0909C943.466 74.7197 943.11 73.6515 942.398 72.8864C941.686 72.1136 940.708 71.7273 939.466 71.7273C938.61 71.7273 937.845 71.9129 937.17 72.2841C936.504 72.6553 935.977 73.197 935.591 73.9091C935.205 74.6212 935.011 75.4848 935.011 76.5ZM958.139 87.3636C956.503 87.3636 955.094 86.9773 953.912 86.2045C952.73 85.4318 951.821 84.3674 951.185 83.0114C950.548 81.6553 950.23 80.1061 950.23 78.3636C950.23 76.5909 950.556 75.0265 951.207 73.6705C951.866 72.3068 952.783 71.2424 953.957 70.4773C955.139 69.7045 956.518 69.3182 958.094 69.3182C959.321 69.3182 960.427 69.5455 961.412 70C962.397 70.4545 963.204 71.0909 963.832 71.9091C964.461 72.7273 964.851 73.6818 965.003 74.7727H962.321C962.116 73.9773 961.662 73.2727 960.957 72.6591C960.26 72.0379 959.321 71.7273 958.139 71.7273C957.094 71.7273 956.177 72 955.389 72.5455C954.609 73.0833 953.999 73.8447 953.56 74.8295C953.128 75.8068 952.912 76.9545 952.912 78.2727C952.912 79.6212 953.124 80.7955 953.548 81.7955C953.98 82.7955 954.586 83.572 955.366 84.125C956.154 84.678 957.079 84.9545 958.139 84.9545C958.836 84.9545 959.469 84.8333 960.037 84.5909C960.605 84.3485 961.086 84 961.48 83.5455C961.874 83.0909 962.154 82.5455 962.321 81.9091H965.003C964.851 82.9394 964.476 83.8674 963.878 84.6932C963.287 85.5114 962.503 86.1629 961.526 86.6477C960.556 87.125 959.427 87.3636 958.139 87.3636ZM976.014 87.3636C974.438 87.3636 973.056 86.9886 971.866 86.2386C970.685 85.4886 969.76 84.4394 969.094 83.0909C968.435 81.7424 968.105 80.1667 968.105 78.3636C968.105 76.5455 968.435 74.9583 969.094 73.6023C969.76 72.2462 970.685 71.1932 971.866 70.4432C973.056 69.6932 974.438 69.3182 976.014 69.3182C977.59 69.3182 978.969 69.6932 980.151 70.4432C981.34 71.1932 982.264 72.2462 982.923 73.6023C983.59 74.9583 983.923 76.5455 983.923 78.3636C983.923 80.1667 983.59 81.7424 982.923 83.0909C982.264 84.4394 981.34 85.4886 980.151 86.2386C978.969 86.9886 977.59 87.3636 976.014 87.3636ZM976.014 84.9545C977.211 84.9545 978.196 84.6477 978.969 84.0341C979.741 83.4205 980.313 82.6136 980.685 81.6136C981.056 80.6136 981.241 79.5303 981.241 78.3636C981.241 77.197 981.056 76.1098 980.685 75.1023C980.313 74.0947 979.741 73.2803 978.969 72.6591C978.196 72.0379 977.211 71.7273 976.014 71.7273C974.817 71.7273 973.832 72.0379 973.06 72.6591C972.287 73.2803 971.715 74.0947 971.344 75.1023C970.973 76.1098 970.787 77.197 970.787 78.3636C970.787 79.5303 970.973 80.6136 971.344 81.6136C971.715 82.6136 972.287 83.4205 973.06 84.0341C973.832 84.6477 974.817 84.9545 976.014 84.9545ZM988.017 87V69.5455H990.608V72.2727H990.835C991.199 71.3409 991.786 70.6174 992.597 70.1023C993.407 69.5795 994.381 69.3182 995.517 69.3182C996.669 69.3182 997.627 69.5795 998.392 70.1023C999.165 70.6174 999.767 71.3409 1000.2 72.2727H1000.38C1000.83 71.3712 1001.5 70.6553 1002.39 70.125C1003.29 69.5871 1004.36 69.3182 1005.61 69.3182C1007.17 69.3182 1008.45 69.8068 1009.44 70.7841C1010.43 71.7538 1010.93 73.2652 1010.93 75.3182V87H1008.24V75.3182C1008.24 74.0303 1007.89 73.1098 1007.19 72.5568C1006.48 72.0038 1005.65 71.7273 1004.7 71.7273C1003.47 71.7273 1002.52 72.0985 1001.85 72.8409C1001.17 73.5758 1000.84 74.5076 1000.84 75.6364V87H998.108V75.0455C998.108 74.053 997.786 73.2538 997.142 72.6477C996.498 72.0341 995.669 71.7273 994.653 71.7273C993.956 71.7273 993.305 71.9129 992.699 72.2841C992.1 72.6553 991.616 73.1705 991.244 73.8295C990.881 74.4811 990.699 75.2348 990.699 76.0909V87H988.017ZM1023.15 87.3636C1021.47 87.3636 1020.02 86.9924 1018.8 86.25C1017.58 85.5 1016.65 84.4545 1015.99 83.1136C1015.34 81.7652 1015.01 80.197 1015.01 78.4091C1015.01 76.6212 1015.34 75.0455 1015.99 73.6818C1016.65 72.3106 1017.56 71.2424 1018.74 70.4773C1019.92 69.7045 1021.3 69.3182 1022.88 69.3182C1023.78 69.3182 1024.68 69.4697 1025.57 69.7727C1026.45 70.0758 1027.26 70.5682 1027.99 71.25C1028.72 71.9242 1029.3 72.8182 1029.73 73.9318C1030.16 75.0455 1030.38 76.4167 1030.38 78.0455V79.1818H1016.92V76.8636H1027.65C1027.65 75.8788 1027.45 75 1027.06 74.2273C1026.67 73.4545 1026.12 72.8447 1025.4 72.3977C1024.69 71.9508 1023.84 71.7273 1022.88 71.7273C1021.81 71.7273 1020.88 71.9924 1020.1 72.5227C1019.33 73.0455 1018.73 73.7273 1018.32 74.5682C1017.9 75.4091 1017.69 76.3106 1017.69 77.2727V78.8182C1017.69 80.1364 1017.92 81.2538 1018.38 82.1705C1018.84 83.0795 1019.48 83.7727 1020.3 84.25C1021.11 84.7197 1022.06 84.9545 1023.15 84.9545C1023.85 84.9545 1024.49 84.8561 1025.06 84.6591C1025.63 84.4545 1026.13 84.1515 1026.55 83.75C1026.96 83.3409 1027.28 82.8333 1027.51 82.2273L1030.1 82.9545C1029.83 83.8333 1029.37 84.6061 1028.73 85.2727C1028.08 85.9318 1027.29 86.447 1026.34 86.8182C1025.39 87.1818 1024.33 87.3636 1023.15 87.3636Z" fill="#C12323"/>
<path d="M745.545 50.3636C743.909 50.3636 742.5 49.9773 741.318 49.2045C740.136 48.4318 739.227 47.3674 738.591 46.0114C737.955 44.6553 737.636 43.1061 737.636 41.3636C737.636 39.5909 737.962 38.0265 738.614 36.6705C739.273 35.3068 740.189 34.2424 741.364 33.4773C742.545 32.7045 743.924 32.3182 745.5 32.3182C746.727 32.3182 747.833 32.5455 748.818 33C749.803 33.4545 750.61 34.0909 751.239 34.9091C751.867 35.7273 752.258 36.6818 752.409 37.7727H749.727C749.523 36.9773 749.068 36.2727 748.364 35.6591C747.667 35.0379 746.727 34.7273 745.545 34.7273C744.5 34.7273 743.583 35 742.795 35.5455C742.015 36.0833 741.405 36.8447 740.966 37.8295C740.534 38.8068 740.318 39.9545 740.318 41.2727C740.318 42.6212 740.53 43.7955 740.955 44.7955C741.386 45.7955 741.992 46.572 742.773 47.125C743.561 47.678 744.485 47.9545 745.545 47.9545C746.242 47.9545 746.875 47.8333 747.443 47.5909C748.011 47.3485 748.492 47 748.886 46.5455C749.28 46.0909 749.561 45.5455 749.727 44.9091H752.409C752.258 45.9394 751.883 46.8674 751.284 47.6932C750.693 48.5114 749.909 49.1629 748.932 49.6477C747.962 50.125 746.833 50.3636 745.545 50.3636ZM763.42 50.3636C761.845 50.3636 760.462 49.9886 759.273 49.2386C758.091 48.4886 757.167 47.4394 756.5 46.0909C755.841 44.7424 755.511 43.1667 755.511 41.3636C755.511 39.5455 755.841 37.9583 756.5 36.6023C757.167 35.2462 758.091 34.1932 759.273 33.4432C760.462 32.6932 761.845 32.3182 763.42 32.3182C764.996 32.3182 766.375 32.6932 767.557 33.4432C768.746 34.1932 769.67 35.2462 770.33 36.6023C770.996 37.9583 771.33 39.5455 771.33 41.3636C771.33 43.1667 770.996 44.7424 770.33 46.0909C769.67 47.4394 768.746 48.4886 767.557 49.2386C766.375 49.9886 764.996 50.3636 763.42 50.3636ZM763.42 47.9545C764.617 47.9545 765.602 47.6477 766.375 47.0341C767.148 46.4205 767.72 45.6136 768.091 44.6136C768.462 43.6136 768.648 42.5303 768.648 41.3636C768.648 40.197 768.462 39.1098 768.091 38.1023C767.72 37.0947 767.148 36.2803 766.375 35.6591C765.602 35.0379 764.617 34.7273 763.42 34.7273C762.223 34.7273 761.239 35.0379 760.466 35.6591C759.693 36.2803 759.121 37.0947 758.75 38.1023C758.379 39.1098 758.193 40.197 758.193 41.3636C758.193 42.5303 758.379 43.6136 758.75 44.6136C759.121 45.6136 759.693 46.4205 760.466 47.0341C761.239 47.6477 762.223 47.9545 763.42 47.9545ZM787.787 36.4545L785.378 37.1364C785.226 36.7348 785.003 36.3447 784.707 35.9659C784.42 35.5795 784.026 35.2614 783.526 35.0114C783.026 34.7614 782.385 34.6364 781.605 34.6364C780.537 34.6364 779.647 34.8826 778.935 35.375C778.23 35.8598 777.878 36.4773 777.878 37.2273C777.878 37.8939 778.12 38.4205 778.605 38.8068C779.09 39.1932 779.848 39.5152 780.878 39.7727L783.469 40.4091C785.029 40.7879 786.192 41.3674 786.957 42.1477C787.723 42.9205 788.105 43.9167 788.105 45.1364C788.105 46.1364 787.817 47.0303 787.241 47.8182C786.673 48.6061 785.878 49.2273 784.855 49.6818C783.832 50.1364 782.643 50.3636 781.287 50.3636C779.507 50.3636 778.033 49.9773 776.866 49.2045C775.7 48.4318 774.961 47.303 774.651 45.8182L777.196 45.1818C777.438 46.1212 777.897 46.8258 778.571 47.2955C779.253 47.7652 780.143 48 781.241 48C782.491 48 783.484 47.7348 784.219 47.2045C784.961 46.6667 785.332 46.0227 785.332 45.2727C785.332 44.6667 785.12 44.1591 784.696 43.75C784.272 43.3333 783.62 43.0227 782.741 42.8182L779.832 42.1364C778.234 41.7576 777.06 41.1705 776.31 40.375C775.567 39.572 775.196 38.5682 775.196 37.3636C775.196 36.3788 775.473 35.5076 776.026 34.75C776.586 33.9924 777.348 33.3977 778.31 32.9659C779.279 32.5341 780.378 32.3182 781.605 32.3182C783.332 32.3182 784.688 32.697 785.673 33.4545C786.666 34.2121 787.37 35.2121 787.787 36.4545ZM799.733 32.5455V34.8182H790.688V32.5455H799.733ZM793.324 28.3636H796.006V45C796.006 45.7576 796.116 46.3258 796.335 46.7045C796.563 47.0758 796.85 47.3258 797.199 47.4545C797.555 47.5758 797.93 47.6364 798.324 47.6364C798.619 47.6364 798.862 47.6212 799.051 47.5909C799.241 47.553 799.392 47.5227 799.506 47.5L800.051 49.9091C799.869 49.9773 799.616 50.0455 799.29 50.1136C798.964 50.1894 798.551 50.2273 798.051 50.2273C797.294 50.2273 796.551 50.0644 795.824 49.7386C795.104 49.4129 794.506 48.9167 794.028 48.25C793.559 47.5833 793.324 46.7424 793.324 45.7273V28.3636ZM815.818 36.4545L813.409 37.1364C813.258 36.7348 813.034 36.3447 812.739 35.9659C812.451 35.5795 812.057 35.2614 811.557 35.0114C811.057 34.7614 810.417 34.6364 809.636 34.6364C808.568 34.6364 807.678 34.8826 806.966 35.375C806.261 35.8598 805.909 36.4773 805.909 37.2273C805.909 37.8939 806.152 38.4205 806.636 38.8068C807.121 39.1932 807.879 39.5152 808.909 39.7727L811.5 40.4091C813.061 40.7879 814.223 41.3674 814.989 42.1477C815.754 42.9205 816.136 43.9167 816.136 45.1364C816.136 46.1364 815.848 47.0303 815.273 47.8182C814.705 48.6061 813.909 49.2273 812.886 49.6818C811.864 50.1364 810.674 50.3636 809.318 50.3636C807.538 50.3636 806.064 49.9773 804.898 49.2045C803.731 48.4318 802.992 47.303 802.682 45.8182L805.227 45.1818C805.47 46.1212 805.928 46.8258 806.602 47.2955C807.284 47.7652 808.174 48 809.273 48C810.523 48 811.515 47.7348 812.25 47.2045C812.992 46.6667 813.364 46.0227 813.364 45.2727C813.364 44.6667 813.152 44.1591 812.727 43.75C812.303 43.3333 811.652 43.0227 810.773 42.8182L807.864 42.1364C806.265 41.7576 805.091 41.1705 804.341 40.375C803.598 39.572 803.227 38.5682 803.227 37.3636C803.227 36.3788 803.504 35.5076 804.057 34.75C804.617 33.9924 805.379 33.3977 806.341 32.9659C807.311 32.5341 808.409 32.3182 809.636 32.3182C811.364 32.3182 812.72 32.697 813.705 33.4545C814.697 34.2121 815.402 35.2121 815.818 36.4545ZM840.173 42.8636V32.5455H842.855V50H840.173V47.0455H839.991C839.582 47.9318 838.946 48.6856 838.082 49.3068C837.219 49.9205 836.128 50.2273 834.81 50.2273C833.719 50.2273 832.749 49.9886 831.901 49.5114C831.052 49.0265 830.385 48.2992 829.901 47.3295C829.416 46.3523 829.173 45.1212 829.173 43.6364V32.5455H831.855V43.4545C831.855 44.7273 832.211 45.7424 832.923 46.5C833.643 47.2576 834.56 47.6364 835.673 47.6364C836.34 47.6364 837.018 47.4659 837.707 47.125C838.404 46.7841 838.988 46.2614 839.457 45.5568C839.935 44.8523 840.173 43.9545 840.173 42.8636ZM847.767 56.5455V32.5455H850.358V35.3182H850.676C850.873 35.0152 851.146 34.6288 851.494 34.1591C851.85 33.6818 852.358 33.2576 853.017 32.8864C853.684 32.5076 854.585 32.3182 855.722 32.3182C857.191 32.3182 858.487 32.6856 859.608 33.4205C860.729 34.1553 861.604 35.197 862.233 36.5455C862.862 37.8939 863.176 39.4848 863.176 41.3182C863.176 43.1667 862.862 44.7689 862.233 46.125C861.604 47.4735 860.733 48.5189 859.619 49.2614C858.506 49.9962 857.222 50.3636 855.767 50.3636C854.646 50.3636 853.748 50.178 853.074 49.8068C852.4 49.428 851.881 49 851.517 48.5227C851.153 48.0379 850.873 47.6364 850.676 47.3182H850.449V56.5455H847.767ZM850.403 41.2727C850.403 42.5909 850.597 43.7538 850.983 44.7614C851.369 45.7614 851.934 46.5455 852.676 47.1136C853.419 47.6742 854.328 47.9545 855.403 47.9545C856.525 47.9545 857.46 47.6591 858.21 47.0682C858.968 46.4697 859.536 45.6667 859.915 44.6591C860.301 43.6439 860.494 42.5152 860.494 41.2727C860.494 40.0455 860.305 38.9394 859.926 37.9545C859.555 36.9621 858.991 36.178 858.233 35.6023C857.483 35.0189 856.54 34.7273 855.403 34.7273C854.313 34.7273 853.396 35.0038 852.653 35.5568C851.911 36.1023 851.35 36.8674 850.972 37.8523C850.593 38.8295 850.403 39.9697 850.403 41.2727ZM883.858 32.5455V34.8182H874.812V32.5455H883.858ZM877.449 28.3636H880.131V45C880.131 45.7576 880.241 46.3258 880.46 46.7045C880.688 47.0758 880.975 47.3258 881.324 47.4545C881.68 47.5758 882.055 47.6364 882.449 47.6364C882.744 47.6364 882.987 47.6212 883.176 47.5909C883.366 47.553 883.517 47.5227 883.631 47.5L884.176 49.9091C883.994 49.9773 883.741 50.0455 883.415 50.1136C883.089 50.1894 882.676 50.2273 882.176 50.2273C881.419 50.2273 880.676 50.0644 879.949 49.7386C879.229 49.4129 878.631 48.9167 878.153 48.25C877.684 47.5833 877.449 46.7424 877.449 45.7273V28.3636ZM894.795 50.3636C893.22 50.3636 891.837 49.9886 890.648 49.2386C889.466 48.4886 888.542 47.4394 887.875 46.0909C887.216 44.7424 886.886 43.1667 886.886 41.3636C886.886 39.5455 887.216 37.9583 887.875 36.6023C888.542 35.2462 889.466 34.1932 890.648 33.4432C891.837 32.6932 893.22 32.3182 894.795 32.3182C896.371 32.3182 897.75 32.6932 898.932 33.4432C900.121 34.1932 901.045 35.2462 901.705 36.6023C902.371 37.9583 902.705 39.5455 902.705 41.3636C902.705 43.1667 902.371 44.7424 901.705 46.0909C901.045 47.4394 900.121 48.4886 898.932 49.2386C897.75 49.9886 896.371 50.3636 894.795 50.3636ZM894.795 47.9545C895.992 47.9545 896.977 47.6477 897.75 47.0341C898.523 46.4205 899.095 45.6136 899.466 44.6136C899.837 43.6136 900.023 42.5303 900.023 41.3636C900.023 40.197 899.837 39.1098 899.466 38.1023C899.095 37.0947 898.523 36.2803 897.75 35.6591C896.977 35.0379 895.992 34.7273 894.795 34.7273C893.598 34.7273 892.614 35.0379 891.841 35.6591C891.068 36.2803 890.496 37.0947 890.125 38.1023C889.754 39.1098 889.568 40.197 889.568 41.3636C889.568 42.5303 889.754 43.6136 890.125 44.6136C890.496 45.6136 891.068 46.4205 891.841 47.0341C892.614 47.6477 893.598 47.9545 894.795 47.9545Z" fill="#C12323"/>
<path d="M27.4929 225.352V219.055L43.2812 194.182H48.7102V202.898H45.4972L35.544 218.649V218.945H57.9801V225.352H27.4929ZM45.6449 232V223.432L45.7926 220.643V194.182H53.2898V232H45.6449ZM78.1357 232.831C74.9595 232.819 72.2266 232.037 69.9368 230.486C67.6593 228.935 65.9051 226.688 64.674 223.746C63.4553 220.804 62.852 217.264 62.8643 213.128C62.8643 209.004 63.4737 205.489 64.6925 202.584C65.9235 199.679 67.6778 197.469 69.9553 195.955C72.245 194.428 74.9718 193.665 78.1357 193.665C81.2995 193.665 84.0201 194.428 86.2976 195.955C88.5874 197.481 90.3478 199.697 91.5788 202.602C92.8099 205.495 93.4193 209.004 93.407 213.128C93.407 217.277 92.7914 220.822 91.5604 223.764C90.3416 226.706 88.5935 228.953 86.3161 230.504C84.0386 232.055 81.3118 232.831 78.1357 232.831ZM78.1357 226.202C80.3023 226.202 82.032 225.112 83.3246 222.933C84.6172 220.754 85.2573 217.486 85.245 213.128C85.245 210.259 84.9496 207.871 84.3587 205.963C83.7801 204.055 82.9553 202.621 81.8842 201.661C80.8255 200.7 79.576 200.22 78.1357 200.22C75.9813 200.22 74.2578 201.297 72.9652 203.452C71.6726 205.606 71.0201 208.831 71.0078 213.128C71.0078 216.033 71.2971 218.458 71.8757 220.403C72.4666 222.336 73.2976 223.789 74.3686 224.761C75.4396 225.722 76.6953 226.202 78.1357 226.202ZM99.1822 232V203.636H106.679V208.641H107.012C107.603 206.979 108.587 205.668 109.966 204.707C111.345 203.747 112.995 203.267 114.915 203.267C116.86 203.267 118.516 203.753 119.882 204.726C121.249 205.686 122.16 206.991 122.615 208.641H122.911C123.489 207.016 124.536 205.717 126.05 204.744C127.577 203.759 129.38 203.267 131.461 203.267C134.107 203.267 136.256 204.11 137.905 205.797C139.567 207.471 140.398 209.847 140.398 212.925V232H132.55V214.476C132.55 212.9 132.132 211.718 131.294 210.93C130.457 210.143 129.411 209.749 128.155 209.749C126.727 209.749 125.613 210.204 124.813 211.115C124.013 212.014 123.613 213.202 123.613 214.679V232H115.986V214.31C115.986 212.919 115.586 211.811 114.786 210.986C113.998 210.161 112.958 209.749 111.665 209.749C110.791 209.749 110.003 209.97 109.301 210.413C108.612 210.844 108.064 211.454 107.658 212.241C107.252 213.017 107.049 213.928 107.049 214.974V232H99.1822ZM145.744 213.091V209.01L154.737 201.827C155.426 201.26 156.023 200.75 156.528 200.294C157.033 199.839 157.427 199.377 157.71 198.909C157.993 198.441 158.135 197.924 158.135 197.358C158.135 196.472 157.771 195.788 157.045 195.308C156.319 194.828 155.439 194.588 154.404 194.588C153.297 194.588 152.404 194.859 151.727 195.401C151.062 195.93 150.73 196.699 150.73 197.709H145.282C145.282 195.345 146.144 193.492 147.868 192.151C149.591 190.796 151.795 190.119 154.478 190.119C156.313 190.119 157.907 190.439 159.261 191.08C160.615 191.707 161.662 192.563 162.4 193.646C163.151 194.73 163.527 195.942 163.527 197.284C163.527 198.367 163.299 199.377 162.843 200.312C162.4 201.236 161.711 202.147 160.775 203.045C159.852 203.932 158.658 204.861 157.193 205.834L153.906 208.271V208.474H163.785V213.091H145.744Z" fill="white"/>
<path d="M286.493 130.352V124.055L302.281 99.1818H307.71V107.898H304.497L294.544 123.649V123.945H316.98V130.352H286.493ZM304.645 137V128.432L304.793 125.643V99.1818H312.29V137H304.645ZM337.136 137.831C333.96 137.819 331.227 137.037 328.937 135.486C326.659 133.935 324.905 131.688 323.674 128.746C322.455 125.804 321.852 122.264 321.864 118.128C321.864 114.004 322.474 110.489 323.692 107.584C324.924 104.679 326.678 102.469 328.955 100.955C331.245 99.428 333.972 98.6648 337.136 98.6648C340.299 98.6648 343.02 99.428 345.298 100.955C347.587 102.481 349.348 104.697 350.579 107.602C351.81 110.495 352.419 114.004 352.407 118.128C352.407 122.277 351.791 125.822 350.56 128.764C349.342 131.706 347.594 133.953 345.316 135.504C343.039 137.055 340.312 137.831 337.136 137.831ZM337.136 131.202C339.302 131.202 341.032 130.112 342.325 127.933C343.617 125.754 344.257 122.486 344.245 118.128C344.245 115.259 343.95 112.871 343.359 110.963C342.78 109.055 341.955 107.621 340.884 106.661C339.826 105.7 338.576 105.22 337.136 105.22C334.981 105.22 333.258 106.297 331.965 108.452C330.673 110.606 330.02 113.831 330.008 118.128C330.008 121.033 330.297 123.458 330.876 125.403C331.467 127.336 332.298 128.789 333.369 129.761C334.44 130.722 335.695 131.202 337.136 131.202ZM365.31 128.838L365.328 119.402H366.473L375.559 108.636H384.588L372.382 122.892H370.517L365.31 128.838ZM358.182 137V99.1818H366.049V137H358.182ZM375.909 137L367.563 124.646L372.807 119.088L385.124 137H375.909ZM388.448 137V108.636H395.945V113.641H396.277C396.868 111.979 397.853 110.668 399.232 109.707C400.611 108.747 402.26 108.267 404.181 108.267C406.126 108.267 407.782 108.753 409.148 109.726C410.515 110.686 411.426 111.991 411.881 113.641H412.176C412.755 112.016 413.801 110.717 415.316 109.744C416.842 108.759 418.646 108.267 420.726 108.267C423.373 108.267 425.521 109.11 427.171 110.797C428.833 112.471 429.664 114.847 429.664 117.925V137H421.816V119.476C421.816 117.9 421.397 116.718 420.56 115.93C419.723 115.143 418.676 114.749 417.421 114.749C415.993 114.749 414.879 115.204 414.078 116.115C413.278 117.014 412.878 118.202 412.878 119.679V137H405.252V119.31C405.252 117.919 404.852 116.811 404.051 115.986C403.264 115.161 402.223 114.749 400.931 114.749C400.057 114.749 399.269 114.97 398.567 115.413C397.878 115.844 397.33 116.454 396.924 117.241C396.517 118.017 396.314 118.928 396.314 119.974V137H388.448Z" fill="#C12323"/>
<path d="M920.493 43.3523V37.0554L936.281 12.1818H941.71V20.8977H938.497L928.544 36.6491V36.9446H950.98V43.3523H920.493ZM938.645 50V41.4318L938.793 38.6435V12.1818H946.29V50H938.645ZM971.136 50.831C967.96 50.8187 965.227 50.0369 962.937 48.4858C960.659 46.9347 958.905 44.688 957.674 41.7457C956.455 38.8035 955.852 35.2642 955.864 31.1278C955.864 27.0038 956.474 23.4891 957.692 20.5838C958.924 17.6785 960.678 15.4687 962.955 13.9545C965.245 12.428 967.972 11.6648 971.136 11.6648C974.299 11.6648 977.02 12.428 979.298 13.9545C981.587 15.4811 983.348 17.697 984.579 20.6023C985.81 23.4953 986.419 27.0038 986.407 31.1278C986.407 35.2765 985.791 38.822 984.56 41.7642C983.342 44.7064 981.594 46.9531 979.316 48.5043C977.039 50.0554 974.312 50.831 971.136 50.831ZM971.136 44.2017C973.302 44.2017 975.032 43.1122 976.325 40.9332C977.617 38.7543 978.257 35.4858 978.245 31.1278C978.245 28.2595 977.95 25.8712 977.359 23.9631C976.78 22.0549 975.955 20.6207 974.884 19.6605C973.826 18.7003 972.576 18.2202 971.136 18.2202C968.981 18.2202 967.258 19.2973 965.965 21.4517C964.673 23.6061 964.02 26.8314 964.008 31.1278C964.008 34.0331 964.297 36.4583 964.876 38.4034C965.467 40.3362 966.298 41.7888 967.369 42.7614C968.44 43.7216 969.695 44.2017 971.136 44.2017ZM1012.81 42.9091V40.9148C1012.81 39.4006 1013.13 38.0095 1013.77 36.7415C1014.42 35.4612 1015.36 34.4394 1016.59 33.6761C1017.84 32.9006 1019.35 32.5128 1021.14 32.5128C1022.95 32.5128 1024.47 32.8944 1025.7 33.6577C1026.94 34.4209 1027.88 35.4427 1028.5 36.723C1029.14 37.991 1029.46 39.3883 1029.46 40.9148V42.9091C1029.46 44.4233 1029.14 45.8205 1028.5 47.1009C1027.86 48.3688 1026.92 49.3845 1025.68 50.1477C1024.44 50.9233 1022.92 51.3111 1021.14 51.3111C1019.33 51.3111 1017.81 50.9233 1016.58 50.1477C1015.34 49.3845 1014.41 48.3688 1013.77 47.1009C1013.13 45.8205 1012.81 44.4233 1012.81 42.9091ZM1018.18 40.9148V42.9091C1018.18 43.7831 1018.39 44.608 1018.81 45.3835C1019.24 46.1591 1020.02 46.5469 1021.14 46.5469C1022.26 46.5469 1023.02 46.1652 1023.43 45.402C1023.85 44.6387 1024.05 43.8078 1024.05 42.9091V40.9148C1024.05 40.0161 1023.86 39.179 1023.46 38.4034C1023.07 37.6278 1022.29 37.2401 1021.14 37.2401C1020.03 37.2401 1019.26 37.6278 1018.83 38.4034C1018.4 39.179 1018.18 40.0161 1018.18 40.9148ZM993.401 21.267V19.2727C993.401 17.7462 993.727 16.349 994.38 15.081C995.032 13.8007 995.974 12.7789 997.205 12.0156C998.448 11.2524 999.95 10.8707 1001.71 10.8707C1003.53 10.8707 1005.06 11.2524 1006.29 12.0156C1007.52 12.7789 1008.46 13.8007 1009.1 15.081C1009.74 16.349 1010.06 17.7462 1010.06 19.2727V21.267C1010.06 22.7936 1009.73 24.1908 1009.08 25.4588C1008.44 26.7268 1007.5 27.7424 1006.25 28.5057C1005.02 29.2566 1003.51 29.6321 1001.71 29.6321C999.913 29.6321 998.393 29.2505 997.15 28.4872C995.918 27.7116 994.983 26.696 994.343 25.4403C993.715 24.1723 993.401 22.7812 993.401 21.267ZM998.811 19.2727V21.267C998.811 22.1657 999.021 22.9967 999.439 23.7599C999.87 24.5232 1000.63 24.9048 1001.71 24.9048C1002.84 24.9048 1003.61 24.5232 1004.02 23.7599C1004.44 22.9967 1004.65 22.1657 1004.65 21.267V19.2727C1004.65 18.3741 1004.45 17.5369 1004.06 16.7614C1003.66 15.9858 1002.88 15.598 1001.71 15.598C1000.61 15.598 999.858 15.9919 999.439 16.7798C999.021 17.5677 998.811 18.3987 998.811 19.2727ZM995.838 50L1021.84 12.1818H1026.68L1000.68 50H995.838Z" fill="#C12323"/>
<circle cx="977.5" cy="192.5" r="59.5" fill="#C12323"/>
<circle cx="977.5" cy="192.5" r="28.5" fill="white"/>
<path d="M977.5 298L928.5 226L1026.5 226L977.5 298Z" fill="#C12323"/>
<path fill-rule="evenodd" clip-rule="evenodd" d="M565.293 263.404C572.2 263.164 579.037 262.559 585.809 261.611L588.719 282.409C581.24 283.455 573.676 284.125 566.023 284.392L565.293 263.404ZM524.27 260.514C531.169 261.724 537.985 262.556 544.723 263.033L543.239 283.981C535.779 283.453 528.247 282.532 520.642 281.198L524.27 260.514ZM606.087 257.728C612.774 256.105 619.404 254.158 625.984 251.908L632.778 271.779C625.621 274.226 618.377 276.355 611.042 278.136L606.087 257.728ZM494.171 252.942C497.505 254.033 500.818 255.034 504.11 255.947L498.497 276.183C494.893 275.183 491.274 274.09 487.641 272.901C484.191 271.773 480.755 270.634 477.332 269.491L483.986 249.573C487.376 250.705 490.771 251.83 494.171 252.942ZM645.399 244.351C651.734 241.588 658.024 238.558 664.271 235.28L674.027 253.877C667.361 257.374 660.618 260.624 653.794 263.6L645.399 244.351ZM443.06 235.784C449.872 238.042 456.721 240.36 463.579 242.685L456.837 262.573C449.977 260.248 443.189 257.951 436.451 255.716L443.06 235.784ZM228.366 243.976L236.941 237.917C240.152 235.648 243.393 233.537 246.664 231.579L257.449 249.599C254.64 251.28 251.843 253.1 249.06 255.067L240.484 261.127L228.366 243.976ZM401.291 222.916C408.274 224.835 415.288 226.915 422.324 229.101L416.093 249.155C409.227 247.022 402.439 245.01 395.726 243.165L401.291 222.916ZM682.579 224.918C688.538 221.302 694.458 217.477 700.342 213.461L712.179 230.807C706.008 235.018 699.774 239.048 693.473 242.871L682.579 224.918ZM267.495 221.278C274.822 218.37 282.243 216.135 289.742 214.493L294.232 235.008C287.802 236.415 281.474 238.324 275.241 240.797L267.495 221.278ZM357.906 213.454C365.188 214.54 372.504 215.931 379.844 217.559L375.295 238.061C368.365 236.523 361.537 235.228 354.81 234.225L357.906 213.454ZM312.62 211.264C320.192 210.745 327.811 210.732 335.461 211.14L334.342 232.111C327.454 231.743 320.694 231.76 314.056 232.215L312.62 211.264ZM717.582 201.095C720.405 198.975 723.219 196.814 726.026 194.616C728.996 192.29 731.944 190.05 734.869 187.894L747.328 204.799C744.569 206.833 741.784 208.948 738.975 211.149C736.062 213.43 733.136 215.676 730.196 217.885L717.582 201.095ZM753.207 175.241C759.754 171.028 766.158 167.23 772.401 163.808L782.495 182.223C776.687 185.407 770.706 188.952 764.571 192.9L753.207 175.241ZM792.437 153.809C799.698 150.54 806.675 147.783 813.332 145.464L820.242 165.295C814.162 167.413 807.756 169.942 801.058 172.958L792.437 153.809ZM835.057 139.061C843.287 137.082 850.795 135.795 857.48 134.985L860.004 155.833C854.097 156.548 847.386 157.695 839.965 159.479L835.057 139.061ZM891 145.25C893.008 134.944 893.007 134.943 893.005 134.943L893.002 134.942L892.982 134.938L892.95 134.932L892.869 134.917C892.807 134.906 892.731 134.892 892.64 134.876C892.458 134.844 892.218 134.804 891.919 134.757C891.323 134.664 890.497 134.547 889.45 134.427C887.357 134.186 884.379 133.93 880.594 133.822L879.994 154.813C883.149 154.903 885.524 155.114 887.049 155.289C887.811 155.377 888.36 155.456 888.687 155.507C888.85 155.532 888.958 155.551 889.01 155.56C889.017 155.561 889.023 155.562 889.028 155.563C889.028 155.563 889.028 155.563 889.028 155.563C889.029 155.563 889.03 155.563 889.031 155.564L899.298 157.564L903.314 136.952L893.008 134.944L891 145.25Z" fill="#C12323"/>
</svg>
