<svg width="1037" height="417" viewBox="0 0 1037 417" fill="none" xmlns="http://www.w3.org/2000/svg">
<rect width="1037" height="344" fill="#C12323"/>
<rect y="355" width="284" height="62" fill="#C12323"/>
<path d="M34.0227 62V38.7273H49.4318V42.7841H38.9432V48.3295H48.4091V52.3864H38.9432V62H34.0227ZM57.4091 62.3295C56.2955 62.3295 55.303 62.1364 54.4318 61.75C53.5606 61.3561 52.8712 60.7765 52.3636 60.0114C51.8636 59.2386 51.6136 58.2765 51.6136 57.125C51.6136 56.1553 51.7917 55.3409 52.1477 54.6818C52.5038 54.0227 52.9886 53.4924 53.6023 53.0909C54.2159 52.6894 54.9129 52.3864 55.6932 52.1818C56.4811 51.9773 57.3068 51.8333 58.1705 51.75C59.1856 51.6439 60.0038 51.5455 60.625 51.4545C61.2462 51.3561 61.697 51.2121 61.9773 51.0227C62.2576 50.8333 62.3977 50.553 62.3977 50.1818V50.1136C62.3977 49.3939 62.1705 48.8371 61.7159 48.4432C61.2689 48.0492 60.6326 47.8523 59.8068 47.8523C58.9356 47.8523 58.2424 48.0455 57.7273 48.4318C57.2121 48.8106 56.8712 49.2879 56.7045 49.8636L52.2273 49.5C52.4545 48.4394 52.9015 47.5227 53.5682 46.75C54.2348 45.9697 55.0947 45.3712 56.1477 44.9545C57.2083 44.5303 58.4356 44.3182 59.8295 44.3182C60.7992 44.3182 61.7273 44.4318 62.6136 44.6591C63.5076 44.8864 64.2992 45.2386 64.9886 45.7159C65.6856 46.1932 66.2348 46.8068 66.6364 47.5568C67.0379 48.2992 67.2386 49.1894 67.2386 50.2273V62H62.6477V59.5795H62.5114C62.2311 60.125 61.8561 60.6061 61.3864 61.0227C60.9167 61.4318 60.3523 61.7538 59.6932 61.9886C59.0341 62.2159 58.2727 62.3295 57.4091 62.3295ZM58.7955 58.9886C59.5076 58.9886 60.1364 58.8485 60.6818 58.5682C61.2273 58.2803 61.6553 57.8939 61.9659 57.4091C62.2765 56.9242 62.4318 56.375 62.4318 55.7614V53.9091C62.2803 54.0076 62.072 54.0985 61.8068 54.1818C61.5492 54.2576 61.2576 54.3295 60.9318 54.3977C60.6061 54.4583 60.2803 54.5152 59.9545 54.5682C59.6288 54.6136 59.3333 54.6553 59.0682 54.6932C58.5 54.7765 58.0038 54.9091 57.5795 55.0909C57.1553 55.2727 56.8258 55.5189 56.5909 55.8295C56.3561 56.1326 56.2386 56.5114 56.2386 56.9659C56.2386 57.625 56.4773 58.1288 56.9545 58.4773C57.4394 58.8182 58.053 58.9886 58.7955 58.9886ZM70.9943 62V44.5455H75.608V47.625H75.8125C76.1761 46.6023 76.7822 45.7955 77.6307 45.2045C78.4792 44.6136 79.4943 44.3182 80.6761 44.3182C81.8731 44.3182 82.892 44.6174 83.733 45.2159C84.5739 45.8068 85.1345 46.6098 85.4148 47.625H85.5966C85.9527 46.625 86.5966 45.8258 87.5284 45.2273C88.4678 44.6212 89.5777 44.3182 90.858 44.3182C92.4867 44.3182 93.8087 44.8371 94.8239 45.875C95.8466 46.9053 96.358 48.3674 96.358 50.2614V62H91.5284V51.2159C91.5284 50.2462 91.2708 49.5189 90.7557 49.0341C90.2405 48.5492 89.5966 48.3068 88.8239 48.3068C87.9451 48.3068 87.2595 48.5871 86.767 49.1477C86.2746 49.7008 86.0284 50.4318 86.0284 51.3409V62H81.3352V51.1136C81.3352 50.2576 81.089 49.5758 80.5966 49.0682C80.1117 48.5606 79.4716 48.3068 78.6761 48.3068C78.1383 48.3068 77.6534 48.4432 77.2216 48.7159C76.7973 48.9811 76.4602 49.3561 76.2102 49.8409C75.9602 50.3182 75.8352 50.8788 75.8352 51.5227V62H70.9943ZM100.182 62V44.5455H105.023V62H100.182ZM102.614 42.2955C101.894 42.2955 101.277 42.0568 100.761 41.5795C100.254 41.0947 100 40.5152 100 39.8409C100 39.1742 100.254 38.6023 100.761 38.125C101.277 37.6402 101.894 37.3977 102.614 37.3977C103.333 37.3977 103.947 37.6402 104.455 38.125C104.97 38.6023 105.227 39.1742 105.227 39.8409C105.227 40.5152 104.97 41.0947 104.455 41.5795C103.947 42.0568 103.333 42.2955 102.614 42.2955ZM113.741 38.7273V62H108.901V38.7273H113.741ZM117.619 62V44.5455H122.46V62H117.619ZM120.051 42.2955C119.331 42.2955 118.714 42.0568 118.199 41.5795C117.691 41.0947 117.438 40.5152 117.438 39.8409C117.438 39.1742 117.691 38.6023 118.199 38.125C118.714 37.6402 119.331 37.3977 120.051 37.3977C120.771 37.3977 121.384 37.6402 121.892 38.125C122.407 38.6023 122.665 39.1742 122.665 39.8409C122.665 40.5152 122.407 41.0947 121.892 41.5795C121.384 42.0568 120.771 42.2955 120.051 42.2955ZM134.293 62.3409C132.497 62.3409 130.952 61.9773 129.656 61.25C128.368 60.5152 127.376 59.4773 126.679 58.1364C125.982 56.7879 125.634 55.1932 125.634 53.3523C125.634 51.5568 125.982 49.9811 126.679 48.625C127.376 47.2689 128.357 46.2121 129.622 45.4545C130.895 44.697 132.387 44.3182 134.099 44.3182C135.251 44.3182 136.323 44.5038 137.315 44.875C138.315 45.2386 139.187 45.7879 139.929 46.5227C140.679 47.2576 141.262 48.1818 141.679 49.2955C142.096 50.4015 142.304 51.697 142.304 53.1818V54.5114H127.565V51.5114H137.747C137.747 50.8144 137.596 50.197 137.293 49.6591C136.99 49.1212 136.569 48.7008 136.031 48.3977C135.501 48.0871 134.884 47.9318 134.179 47.9318C133.444 47.9318 132.793 48.1023 132.224 48.4432C131.664 48.7765 131.224 49.2273 130.906 49.7955C130.588 50.3561 130.425 50.9811 130.418 51.6705V54.5227C130.418 55.3864 130.577 56.1326 130.895 56.7614C131.221 57.3902 131.679 57.875 132.27 58.2159C132.861 58.5568 133.562 58.7273 134.372 58.7273C134.91 58.7273 135.402 58.6515 135.849 58.5C136.296 58.3485 136.679 58.1212 136.997 57.8182C137.315 57.5152 137.558 57.1439 137.724 56.7045L142.202 57C141.974 58.0758 141.509 59.0152 140.804 59.8182C140.107 60.6136 139.205 61.2348 138.099 61.6818C137.001 62.1212 135.732 62.3409 134.293 62.3409ZM159.986 49.5227L155.554 49.7955C155.478 49.4167 155.315 49.0758 155.065 48.7727C154.815 48.4621 154.486 48.2159 154.077 48.0341C153.675 47.8447 153.194 47.75 152.634 47.75C151.884 47.75 151.251 47.9091 150.736 48.2273C150.221 48.5379 149.963 48.9545 149.963 49.4773C149.963 49.8939 150.13 50.2462 150.463 50.5341C150.796 50.822 151.368 51.053 152.179 51.2273L155.338 51.8636C157.035 52.2121 158.3 52.7727 159.134 53.5455C159.967 54.3182 160.384 55.3333 160.384 56.5909C160.384 57.7348 160.046 58.7386 159.372 59.6023C158.705 60.4659 157.789 61.1402 156.622 61.625C155.463 62.1023 154.126 62.3409 152.611 62.3409C150.3 62.3409 148.459 61.8598 147.088 60.8977C145.724 59.928 144.925 58.6098 144.69 56.9432L149.452 56.6932C149.596 57.3977 149.944 57.9356 150.497 58.3068C151.05 58.6705 151.759 58.8523 152.622 58.8523C153.471 58.8523 154.152 58.6894 154.668 58.3636C155.19 58.0303 155.455 57.6023 155.463 57.0795C155.455 56.6402 155.27 56.2803 154.906 56C154.543 55.7121 153.982 55.4924 153.224 55.3409L150.202 54.7386C148.497 54.3977 147.228 53.8068 146.395 52.9659C145.569 52.125 145.156 51.053 145.156 49.75C145.156 48.6288 145.459 47.6629 146.065 46.8523C146.679 46.0417 147.539 45.4167 148.645 44.9773C149.759 44.5379 151.062 44.3182 152.554 44.3182C154.759 44.3182 156.493 44.7841 157.759 45.7159C159.031 46.6477 159.774 47.9167 159.986 49.5227ZM178.724 62.3409C176.959 62.3409 175.433 61.9659 174.145 61.2159C172.865 60.4583 171.876 59.4053 171.179 58.0568C170.482 56.7008 170.134 55.1288 170.134 53.3409C170.134 51.5379 170.482 49.9621 171.179 48.6136C171.876 47.2576 172.865 46.2045 174.145 45.4545C175.433 44.697 176.959 44.3182 178.724 44.3182C180.49 44.3182 182.012 44.697 183.293 45.4545C184.58 46.2045 185.573 47.2576 186.27 48.6136C186.967 49.9621 187.315 51.5379 187.315 53.3409C187.315 55.1288 186.967 56.7008 186.27 58.0568C185.573 59.4053 184.58 60.4583 183.293 61.2159C182.012 61.9659 180.49 62.3409 178.724 62.3409ZM178.747 58.5909C179.55 58.5909 180.221 58.3636 180.759 57.9091C181.296 57.447 181.702 56.8182 181.974 56.0227C182.255 55.2273 182.395 54.322 182.395 53.3068C182.395 52.2917 182.255 51.3864 181.974 50.5909C181.702 49.7955 181.296 49.1667 180.759 48.7045C180.221 48.2424 179.55 48.0114 178.747 48.0114C177.937 48.0114 177.255 48.2424 176.702 48.7045C176.156 49.1667 175.743 49.7955 175.463 50.5909C175.19 51.3864 175.054 52.2917 175.054 53.3068C175.054 54.322 175.19 55.2273 175.463 56.0227C175.743 56.8182 176.156 57.447 176.702 57.9091C177.255 58.3636 177.937 58.5909 178.747 58.5909ZM195.304 51.9091V62H190.463V44.5455H195.077V47.625H195.281C195.668 46.6098 196.315 45.8068 197.224 45.2159C198.134 44.6174 199.236 44.3182 200.531 44.3182C201.743 44.3182 202.8 44.5833 203.702 45.1136C204.603 45.6439 205.304 46.4015 205.804 47.3864C206.304 48.3636 206.554 49.5303 206.554 50.8864V62H201.713V51.75C201.721 50.6818 201.448 49.8485 200.895 49.25C200.342 48.6439 199.58 48.3409 198.611 48.3409C197.959 48.3409 197.384 48.4811 196.884 48.7614C196.391 49.0417 196.005 49.4508 195.724 49.9886C195.452 50.5189 195.312 51.1591 195.304 51.9091ZM222.616 51.9091V62H217.776V38.7273H222.48V47.625H222.685C223.079 46.5947 223.715 45.7879 224.594 45.2045C225.473 44.6136 226.575 44.3182 227.901 44.3182C229.113 44.3182 230.17 44.5833 231.071 45.1136C231.98 45.6364 232.685 46.3902 233.185 47.375C233.692 48.3523 233.942 49.5227 233.935 50.8864V62H229.094V51.75C229.101 50.6742 228.829 49.8371 228.276 49.2386C227.73 48.6402 226.965 48.3409 225.98 48.3409C225.321 48.3409 224.738 48.4811 224.23 48.7614C223.73 49.0417 223.336 49.4508 223.048 49.9886C222.768 50.5189 222.624 51.1591 222.616 51.9091ZM245.631 62.3409C243.866 62.3409 242.339 61.9659 241.051 61.2159C239.771 60.4583 238.782 59.4053 238.085 58.0568C237.388 56.7008 237.04 55.1288 237.04 53.3409C237.04 51.5379 237.388 49.9621 238.085 48.6136C238.782 47.2576 239.771 46.2045 241.051 45.4545C242.339 44.697 243.866 44.3182 245.631 44.3182C247.396 44.3182 248.919 44.697 250.199 45.4545C251.487 46.2045 252.479 47.2576 253.176 48.6136C253.873 49.9621 254.222 51.5379 254.222 53.3409C254.222 55.1288 253.873 56.7008 253.176 58.0568C252.479 59.4053 251.487 60.4583 250.199 61.2159C248.919 61.9659 247.396 62.3409 245.631 62.3409ZM245.653 58.5909C246.456 58.5909 247.127 58.3636 247.665 57.9091C248.203 57.447 248.608 56.8182 248.881 56.0227C249.161 55.2273 249.301 54.322 249.301 53.3068C249.301 52.2917 249.161 51.3864 248.881 50.5909C248.608 49.7955 248.203 49.1667 247.665 48.7045C247.127 48.2424 246.456 48.0114 245.653 48.0114C244.843 48.0114 244.161 48.2424 243.608 48.7045C243.063 49.1667 242.65 49.7955 242.369 50.5909C242.097 51.3864 241.96 52.2917 241.96 53.3068C241.96 54.322 242.097 55.2273 242.369 56.0227C242.65 56.8182 243.063 57.447 243.608 57.9091C244.161 58.3636 244.843 58.5909 245.653 58.5909ZM268.562 54.5682V44.5455H273.403V62H268.756V58.8295H268.574C268.18 59.8523 267.525 60.6742 266.608 61.2955C265.699 61.9167 264.589 62.2273 263.278 62.2273C262.112 62.2273 261.085 61.9621 260.199 61.4318C259.313 60.9015 258.619 60.1477 258.119 59.1705C257.627 58.1932 257.377 57.0227 257.369 55.6591V44.5455H262.21V54.7955C262.218 55.8258 262.494 56.6402 263.04 57.2386C263.585 57.8371 264.316 58.1364 265.233 58.1364C265.816 58.1364 266.362 58.0038 266.869 57.7386C267.377 57.4659 267.786 57.0644 268.097 56.5341C268.415 56.0038 268.57 55.3485 268.562 54.5682ZM291.798 49.5227L287.366 49.7955C287.291 49.4167 287.128 49.0758 286.878 48.7727C286.628 48.4621 286.298 48.2159 285.889 48.0341C285.488 47.8447 285.007 47.75 284.446 47.75C283.696 47.75 283.063 47.9091 282.548 48.2273C282.033 48.5379 281.776 48.9545 281.776 49.4773C281.776 49.8939 281.942 50.2462 282.276 50.5341C282.609 50.822 283.181 51.053 283.991 51.2273L287.151 51.8636C288.848 52.2121 290.113 52.7727 290.946 53.5455C291.779 54.3182 292.196 55.3333 292.196 56.5909C292.196 57.7348 291.859 58.7386 291.185 59.6023C290.518 60.4659 289.601 61.1402 288.435 61.625C287.276 62.1023 285.938 62.3409 284.423 62.3409C282.113 62.3409 280.272 61.8598 278.901 60.8977C277.537 59.928 276.738 58.6098 276.503 56.9432L281.264 56.6932C281.408 57.3977 281.757 57.9356 282.31 58.3068C282.863 58.6705 283.571 58.8523 284.435 58.8523C285.283 58.8523 285.965 58.6894 286.48 58.3636C287.003 58.0303 287.268 57.6023 287.276 57.0795C287.268 56.6402 287.082 56.2803 286.719 56C286.355 55.7121 285.795 55.4924 285.037 55.3409L282.014 54.7386C280.31 54.3977 279.041 53.8068 278.207 52.9659C277.382 52.125 276.969 51.053 276.969 49.75C276.969 48.6288 277.272 47.6629 277.878 46.8523C278.491 46.0417 279.351 45.4167 280.457 44.9773C281.571 44.5379 282.874 44.3182 284.366 44.3182C286.571 44.3182 288.306 44.7841 289.571 45.7159C290.844 46.6477 291.586 47.9167 291.798 49.5227ZM295.244 62V44.5455H300.085V62H295.244ZM297.676 42.2955C296.956 42.2955 296.339 42.0568 295.824 41.5795C295.316 41.0947 295.062 40.5152 295.062 39.8409C295.062 39.1742 295.316 38.6023 295.824 38.125C296.339 37.6402 296.956 37.3977 297.676 37.3977C298.396 37.3977 299.009 37.6402 299.517 38.125C300.032 38.6023 300.29 39.1742 300.29 39.8409C300.29 40.5152 300.032 41.0947 299.517 41.5795C299.009 42.0568 298.396 42.2955 297.676 42.2955ZM308.804 51.9091V62H303.963V44.5455H308.577V47.625H308.781C309.168 46.6098 309.815 45.8068 310.724 45.2159C311.634 44.6174 312.736 44.3182 314.031 44.3182C315.243 44.3182 316.3 44.5833 317.202 45.1136C318.103 45.6439 318.804 46.4015 319.304 47.3864C319.804 48.3636 320.054 49.5303 320.054 50.8864V62H315.213V51.75C315.221 50.6818 314.948 49.8485 314.395 49.25C313.842 48.6439 313.08 48.3409 312.111 48.3409C311.459 48.3409 310.884 48.4811 310.384 48.7614C309.891 49.0417 309.505 49.4508 309.224 49.9886C308.952 50.5189 308.812 51.1591 308.804 51.9091ZM331.733 68.9091C330.165 68.9091 328.82 68.6932 327.699 68.2614C326.585 67.8371 325.699 67.2576 325.04 66.5227C324.381 65.7879 323.953 64.9621 323.756 64.0455L328.233 63.4432C328.369 63.7917 328.585 64.1174 328.881 64.4205C329.176 64.7235 329.566 64.9659 330.051 65.1477C330.544 65.3371 331.142 65.4318 331.847 65.4318C332.9 65.4318 333.767 65.1742 334.449 64.6591C335.138 64.1515 335.483 63.2992 335.483 62.1023V58.9091H335.278C335.066 59.3939 334.748 59.8523 334.324 60.2841C333.9 60.7159 333.354 61.0682 332.688 61.3409C332.021 61.6136 331.225 61.75 330.301 61.75C328.991 61.75 327.797 61.447 326.722 60.8409C325.653 60.2273 324.801 59.2917 324.165 58.0341C323.536 56.7689 323.222 55.1705 323.222 53.2386C323.222 51.2614 323.544 49.6098 324.188 48.2841C324.831 46.9583 325.688 45.9659 326.756 45.3068C327.831 44.6477 329.009 44.3182 330.29 44.3182C331.267 44.3182 332.085 44.4848 332.744 44.8182C333.403 45.1439 333.934 45.553 334.335 46.0455C334.744 46.5303 335.059 47.0076 335.278 47.4773H335.46V44.5455H340.267V62.1705C340.267 63.6553 339.903 64.8977 339.176 65.8977C338.449 66.8977 337.441 67.6477 336.153 68.1477C334.873 68.6553 333.4 68.9091 331.733 68.9091ZM331.835 58.1136C332.616 58.1136 333.275 57.9205 333.812 57.5341C334.358 57.1402 334.775 56.5795 335.062 55.8523C335.358 55.1174 335.506 54.2386 335.506 53.2159C335.506 52.1932 335.362 51.3068 335.074 50.5568C334.786 49.7992 334.369 49.2121 333.824 48.7955C333.278 48.3788 332.616 48.1705 331.835 48.1705C331.04 48.1705 330.369 48.3864 329.824 48.8182C329.278 49.2424 328.866 49.8333 328.585 50.5909C328.305 51.3485 328.165 52.2235 328.165 53.2159C328.165 54.2235 328.305 55.0947 328.585 55.8295C328.873 56.5568 329.286 57.1212 329.824 57.5227C330.369 57.9167 331.04 58.1136 331.835 58.1136ZM354.969 62L350.219 44.5455H355.116L357.821 56.2727H357.98L360.798 44.5455H365.605L368.469 56.2045H368.616L371.276 44.5455H376.162L371.423 62H366.298L363.298 51.0227H363.082L360.082 62H354.969ZM383.722 62.3295C382.608 62.3295 381.616 62.1364 380.744 61.75C379.873 61.3561 379.184 60.7765 378.676 60.0114C378.176 59.2386 377.926 58.2765 377.926 57.125C377.926 56.1553 378.104 55.3409 378.46 54.6818C378.816 54.0227 379.301 53.4924 379.915 53.0909C380.528 52.6894 381.225 52.3864 382.006 52.1818C382.794 51.9773 383.619 51.8333 384.483 51.75C385.498 51.6439 386.316 51.5455 386.938 51.4545C387.559 51.3561 388.009 51.2121 388.29 51.0227C388.57 50.8333 388.71 50.553 388.71 50.1818V50.1136C388.71 49.3939 388.483 48.8371 388.028 48.4432C387.581 48.0492 386.945 47.8523 386.119 47.8523C385.248 47.8523 384.555 48.0455 384.04 48.4318C383.525 48.8106 383.184 49.2879 383.017 49.8636L378.54 49.5C378.767 48.4394 379.214 47.5227 379.881 46.75C380.547 45.9697 381.407 45.3712 382.46 44.9545C383.521 44.5303 384.748 44.3182 386.142 44.3182C387.112 44.3182 388.04 44.4318 388.926 44.6591C389.82 44.8864 390.612 45.2386 391.301 45.7159C391.998 46.1932 392.547 46.8068 392.949 47.5568C393.35 48.2992 393.551 49.1894 393.551 50.2273V62H388.96V59.5795H388.824C388.544 60.125 388.169 60.6061 387.699 61.0227C387.229 61.4318 386.665 61.7538 386.006 61.9886C385.347 62.2159 384.585 62.3295 383.722 62.3295ZM385.108 58.9886C385.82 58.9886 386.449 58.8485 386.994 58.5682C387.54 58.2803 387.968 57.8939 388.278 57.4091C388.589 56.9242 388.744 56.375 388.744 55.7614V53.9091C388.593 54.0076 388.384 54.0985 388.119 54.1818C387.862 54.2576 387.57 54.3295 387.244 54.3977C386.919 54.4583 386.593 54.5152 386.267 54.5682C385.941 54.6136 385.646 54.6553 385.381 54.6932C384.813 54.7765 384.316 54.9091 383.892 55.0909C383.468 55.2727 383.138 55.5189 382.903 55.8295C382.669 56.1326 382.551 56.5114 382.551 56.9659C382.551 57.625 382.79 58.1288 383.267 58.4773C383.752 58.8182 384.366 58.9886 385.108 58.9886ZM397.307 62V44.5455H402.148V62H397.307ZM399.739 42.2955C399.019 42.2955 398.402 42.0568 397.886 41.5795C397.379 41.0947 397.125 40.5152 397.125 39.8409C397.125 39.1742 397.379 38.6023 397.886 38.125C398.402 37.6402 399.019 37.3977 399.739 37.3977C400.458 37.3977 401.072 37.6402 401.58 38.125C402.095 38.6023 402.352 39.1742 402.352 39.8409C402.352 40.5152 402.095 41.0947 401.58 41.5795C401.072 42.0568 400.458 42.2955 399.739 42.2955ZM415.31 44.5455V48.1818H404.798V44.5455H415.31ZM407.185 40.3636H412.026V56.6364C412.026 57.0833 412.094 57.4318 412.23 57.6818C412.366 57.9242 412.556 58.0947 412.798 58.1932C413.048 58.2917 413.336 58.3409 413.662 58.3409C413.889 58.3409 414.116 58.322 414.344 58.2841C414.571 58.2386 414.745 58.2045 414.866 58.1818L415.628 61.7841C415.385 61.8598 415.045 61.947 414.605 62.0455C414.166 62.1515 413.632 62.2159 413.003 62.2386C411.836 62.2841 410.813 62.1288 409.935 61.7727C409.063 61.4167 408.385 60.8636 407.901 60.1136C407.416 59.3636 407.177 58.4167 407.185 57.2727V40.3636ZM418.463 62V44.5455H423.304V62H418.463ZM420.895 42.2955C420.175 42.2955 419.558 42.0568 419.043 41.5795C418.535 41.0947 418.281 40.5152 418.281 39.8409C418.281 39.1742 418.535 38.6023 419.043 38.125C419.558 37.6402 420.175 37.3977 420.895 37.3977C421.615 37.3977 422.228 37.6402 422.736 38.125C423.251 38.6023 423.509 39.1742 423.509 39.8409C423.509 40.5152 423.251 41.0947 422.736 41.5795C422.228 42.0568 421.615 42.2955 420.895 42.2955ZM432.023 51.9091V62H427.182V44.5455H431.795V47.625H432C432.386 46.6098 433.034 45.8068 433.943 45.2159C434.852 44.6174 435.955 44.3182 437.25 44.3182C438.462 44.3182 439.519 44.5833 440.42 45.1136C441.322 45.6439 442.023 46.4015 442.523 47.3864C443.023 48.3636 443.273 49.5303 443.273 50.8864V62H438.432V51.75C438.439 50.6818 438.167 49.8485 437.614 49.25C437.061 48.6439 436.299 48.3409 435.33 48.3409C434.678 48.3409 434.102 48.4811 433.602 48.7614C433.11 49.0417 432.723 49.4508 432.443 49.9886C432.17 50.5189 432.03 51.1591 432.023 51.9091ZM454.952 68.9091C453.384 68.9091 452.039 68.6932 450.918 68.2614C449.804 67.8371 448.918 67.2576 448.259 66.5227C447.599 65.7879 447.171 64.9621 446.974 64.0455L451.452 63.4432C451.588 63.7917 451.804 64.1174 452.099 64.4205C452.395 64.7235 452.785 64.9659 453.27 65.1477C453.762 65.3371 454.361 65.4318 455.065 65.4318C456.118 65.4318 456.986 65.1742 457.668 64.6591C458.357 64.1515 458.702 63.2992 458.702 62.1023V58.9091H458.497C458.285 59.3939 457.967 59.8523 457.543 60.2841C457.118 60.7159 456.573 61.0682 455.906 61.3409C455.24 61.6136 454.444 61.75 453.52 61.75C452.209 61.75 451.016 61.447 449.94 60.8409C448.872 60.2273 448.02 59.2917 447.384 58.0341C446.755 56.7689 446.44 55.1705 446.44 53.2386C446.44 51.2614 446.762 49.6098 447.406 48.2841C448.05 46.9583 448.906 45.9659 449.974 45.3068C451.05 44.6477 452.228 44.3182 453.509 44.3182C454.486 44.3182 455.304 44.4848 455.963 44.8182C456.622 45.1439 457.152 45.553 457.554 46.0455C457.963 46.5303 458.277 47.0076 458.497 47.4773H458.679V44.5455H463.486V62.1705C463.486 63.6553 463.122 64.8977 462.395 65.8977C461.668 66.8977 460.66 67.6477 459.372 68.1477C458.092 68.6553 456.618 68.9091 454.952 68.9091ZM455.054 58.1136C455.834 58.1136 456.493 57.9205 457.031 57.5341C457.577 57.1402 457.993 56.5795 458.281 55.8523C458.577 55.1174 458.724 54.2386 458.724 53.2159C458.724 52.1932 458.58 51.3068 458.293 50.5568C458.005 49.7992 457.588 49.2121 457.043 48.7955C456.497 48.3788 455.834 48.1705 455.054 48.1705C454.259 48.1705 453.588 48.3864 453.043 48.8182C452.497 49.2424 452.084 49.8333 451.804 50.5909C451.524 51.3485 451.384 52.2235 451.384 53.2159C451.384 54.2235 451.524 55.0947 451.804 55.8295C452.092 56.5568 452.505 57.1212 453.043 57.5227C453.588 57.9167 454.259 58.1136 455.054 58.1136ZM479.585 38.7273V62H474.744V38.7273H479.585ZM483.463 62V44.5455H488.304V62H483.463ZM485.895 42.2955C485.175 42.2955 484.558 42.0568 484.043 41.5795C483.535 41.0947 483.281 40.5152 483.281 39.8409C483.281 39.1742 483.535 38.6023 484.043 38.125C484.558 37.6402 485.175 37.3977 485.895 37.3977C486.615 37.3977 487.228 37.6402 487.736 38.125C488.251 38.6023 488.509 39.1742 488.509 39.8409C488.509 40.5152 488.251 41.0947 487.736 41.5795C487.228 42.0568 486.615 42.2955 485.895 42.2955ZM506.705 49.5227L502.273 49.7955C502.197 49.4167 502.034 49.0758 501.784 48.7727C501.534 48.4621 501.205 48.2159 500.795 48.0341C500.394 47.8447 499.913 47.75 499.352 47.75C498.602 47.75 497.97 47.9091 497.455 48.2273C496.939 48.5379 496.682 48.9545 496.682 49.4773C496.682 49.8939 496.848 50.2462 497.182 50.5341C497.515 50.822 498.087 51.053 498.898 51.2273L502.057 51.8636C503.754 52.2121 505.019 52.7727 505.852 53.5455C506.686 54.3182 507.102 55.3333 507.102 56.5909C507.102 57.7348 506.765 58.7386 506.091 59.6023C505.424 60.4659 504.508 61.1402 503.341 61.625C502.182 62.1023 500.845 62.3409 499.33 62.3409C497.019 62.3409 495.178 61.8598 493.807 60.8977C492.443 59.928 491.644 58.6098 491.409 56.9432L496.17 56.6932C496.314 57.3977 496.663 57.9356 497.216 58.3068C497.769 58.6705 498.477 58.8523 499.341 58.8523C500.189 58.8523 500.871 58.6894 501.386 58.3636C501.909 58.0303 502.174 57.6023 502.182 57.0795C502.174 56.6402 501.989 56.2803 501.625 56C501.261 55.7121 500.701 55.4924 499.943 55.3409L496.92 54.7386C495.216 54.3977 493.947 53.8068 493.114 52.9659C492.288 52.125 491.875 51.053 491.875 49.75C491.875 48.6288 492.178 47.6629 492.784 46.8523C493.398 46.0417 494.258 45.4167 495.364 44.9773C496.477 44.5379 497.78 44.3182 499.273 44.3182C501.477 44.3182 503.212 44.7841 504.477 45.7159C505.75 46.6477 506.492 47.9167 506.705 49.5227ZM519.435 44.5455V48.1818H508.923V44.5455H519.435ZM511.31 40.3636H516.151V56.6364C516.151 57.0833 516.219 57.4318 516.355 57.6818C516.491 57.9242 516.681 58.0947 516.923 58.1932C517.173 58.2917 517.461 58.3409 517.787 58.3409C518.014 58.3409 518.241 58.322 518.469 58.2841C518.696 58.2386 518.87 58.2045 518.991 58.1818L519.753 61.7841C519.51 61.8598 519.17 61.947 518.73 62.0455C518.291 62.1515 517.757 62.2159 517.128 62.2386C515.961 62.2841 514.938 62.1288 514.06 61.7727C513.188 61.4167 512.51 60.8636 512.026 60.1136C511.541 59.3636 511.302 58.4167 511.31 57.2727V40.3636Z" fill="white"/>
<path d="M309.023 397V373.727H313.943V383.33H323.932V373.727H328.841V397H323.932V387.386H313.943V397H309.023ZM340.693 397.341C338.928 397.341 337.402 396.966 336.114 396.216C334.833 395.458 333.845 394.405 333.148 393.057C332.451 391.701 332.102 390.129 332.102 388.341C332.102 386.538 332.451 384.962 333.148 383.614C333.845 382.258 334.833 381.205 336.114 380.455C337.402 379.697 338.928 379.318 340.693 379.318C342.458 379.318 343.981 379.697 345.261 380.455C346.549 381.205 347.542 382.258 348.239 383.614C348.936 384.962 349.284 386.538 349.284 388.341C349.284 390.129 348.936 391.701 348.239 393.057C347.542 394.405 346.549 395.458 345.261 396.216C343.981 396.966 342.458 397.341 340.693 397.341ZM340.716 393.591C341.519 393.591 342.189 393.364 342.727 392.909C343.265 392.447 343.67 391.818 343.943 391.023C344.223 390.227 344.364 389.322 344.364 388.307C344.364 387.292 344.223 386.386 343.943 385.591C343.67 384.795 343.265 384.167 342.727 383.705C342.189 383.242 341.519 383.011 340.716 383.011C339.905 383.011 339.223 383.242 338.67 383.705C338.125 384.167 337.712 384.795 337.432 385.591C337.159 386.386 337.023 387.292 337.023 388.307C337.023 389.322 337.159 390.227 337.432 391.023C337.712 391.818 338.125 392.447 338.67 392.909C339.223 393.364 339.905 393.591 340.716 393.591ZM363.625 389.568V379.545H368.466V397H363.818V393.83H363.636C363.242 394.852 362.587 395.674 361.67 396.295C360.761 396.917 359.652 397.227 358.341 397.227C357.174 397.227 356.148 396.962 355.261 396.432C354.375 395.902 353.682 395.148 353.182 394.17C352.689 393.193 352.439 392.023 352.432 390.659V379.545H357.273V389.795C357.28 390.826 357.557 391.64 358.102 392.239C358.648 392.837 359.379 393.136 360.295 393.136C360.879 393.136 361.424 393.004 361.932 392.739C362.439 392.466 362.848 392.064 363.159 391.534C363.477 391.004 363.633 390.348 363.625 389.568ZM386.861 384.523L382.429 384.795C382.353 384.417 382.19 384.076 381.94 383.773C381.69 383.462 381.361 383.216 380.952 383.034C380.55 382.845 380.069 382.75 379.509 382.75C378.759 382.75 378.126 382.909 377.611 383.227C377.096 383.538 376.838 383.955 376.838 384.477C376.838 384.894 377.005 385.246 377.338 385.534C377.671 385.822 378.243 386.053 379.054 386.227L382.213 386.864C383.91 387.212 385.175 387.773 386.009 388.545C386.842 389.318 387.259 390.333 387.259 391.591C387.259 392.735 386.921 393.739 386.247 394.602C385.58 395.466 384.664 396.14 383.497 396.625C382.338 397.102 381.001 397.341 379.486 397.341C377.175 397.341 375.334 396.86 373.963 395.898C372.599 394.928 371.8 393.61 371.565 391.943L376.327 391.693C376.471 392.398 376.819 392.936 377.372 393.307C377.925 393.67 378.634 393.852 379.497 393.852C380.346 393.852 381.027 393.689 381.543 393.364C382.065 393.03 382.33 392.602 382.338 392.08C382.33 391.64 382.145 391.28 381.781 391C381.418 390.712 380.857 390.492 380.099 390.341L377.077 389.739C375.372 389.398 374.103 388.807 373.27 387.966C372.444 387.125 372.031 386.053 372.031 384.75C372.031 383.629 372.334 382.663 372.94 381.852C373.554 381.042 374.414 380.417 375.52 379.977C376.634 379.538 377.937 379.318 379.429 379.318C381.634 379.318 383.368 379.784 384.634 380.716C385.906 381.648 386.649 382.917 386.861 384.523ZM398.261 397.341C396.466 397.341 394.92 396.977 393.625 396.25C392.337 395.515 391.345 394.477 390.648 393.136C389.951 391.788 389.602 390.193 389.602 388.352C389.602 386.557 389.951 384.981 390.648 383.625C391.345 382.269 392.326 381.212 393.591 380.455C394.864 379.697 396.356 379.318 398.068 379.318C399.22 379.318 400.292 379.504 401.284 379.875C402.284 380.239 403.155 380.788 403.898 381.523C404.648 382.258 405.231 383.182 405.648 384.295C406.064 385.402 406.273 386.697 406.273 388.182V389.511H391.534V386.511H401.716C401.716 385.814 401.564 385.197 401.261 384.659C400.958 384.121 400.538 383.701 400 383.398C399.47 383.087 398.852 382.932 398.148 382.932C397.413 382.932 396.761 383.102 396.193 383.443C395.633 383.777 395.193 384.227 394.875 384.795C394.557 385.356 394.394 385.981 394.386 386.67V389.523C394.386 390.386 394.545 391.133 394.864 391.761C395.189 392.39 395.648 392.875 396.239 393.216C396.83 393.557 397.53 393.727 398.341 393.727C398.879 393.727 399.371 393.652 399.818 393.5C400.265 393.348 400.648 393.121 400.966 392.818C401.284 392.515 401.527 392.144 401.693 391.705L406.17 392C405.943 393.076 405.477 394.015 404.773 394.818C404.076 395.614 403.174 396.235 402.068 396.682C400.97 397.121 399.701 397.341 398.261 397.341ZM423.955 384.523L419.523 384.795C419.447 384.417 419.284 384.076 419.034 383.773C418.784 383.462 418.455 383.216 418.045 383.034C417.644 382.845 417.163 382.75 416.602 382.75C415.852 382.75 415.22 382.909 414.705 383.227C414.189 383.538 413.932 383.955 413.932 384.477C413.932 384.894 414.098 385.246 414.432 385.534C414.765 385.822 415.337 386.053 416.148 386.227L419.307 386.864C421.004 387.212 422.269 387.773 423.102 388.545C423.936 389.318 424.352 390.333 424.352 391.591C424.352 392.735 424.015 393.739 423.341 394.602C422.674 395.466 421.758 396.14 420.591 396.625C419.432 397.102 418.095 397.341 416.58 397.341C414.269 397.341 412.428 396.86 411.057 395.898C409.693 394.928 408.894 393.61 408.659 391.943L413.42 391.693C413.564 392.398 413.913 392.936 414.466 393.307C415.019 393.67 415.727 393.852 416.591 393.852C417.439 393.852 418.121 393.689 418.636 393.364C419.159 393.03 419.424 392.602 419.432 392.08C419.424 391.64 419.239 391.28 418.875 391C418.511 390.712 417.951 390.492 417.193 390.341L414.17 389.739C412.466 389.398 411.197 388.807 410.364 387.966C409.538 387.125 409.125 386.053 409.125 384.75C409.125 383.629 409.428 382.663 410.034 381.852C410.648 381.042 411.508 380.417 412.614 379.977C413.727 379.538 415.03 379.318 416.523 379.318C418.727 379.318 420.462 379.784 421.727 380.716C423 381.648 423.742 382.917 423.955 384.523ZM434.898 397V373.727H439.739V382.477H439.886C440.098 382.008 440.405 381.53 440.807 381.045C441.216 380.553 441.746 380.144 442.398 379.818C443.057 379.485 443.875 379.318 444.852 379.318C446.125 379.318 447.299 379.652 448.375 380.318C449.451 380.977 450.311 381.973 450.955 383.307C451.598 384.633 451.92 386.295 451.92 388.295C451.92 390.242 451.606 391.886 450.977 393.227C450.356 394.561 449.508 395.572 448.432 396.261C447.364 396.943 446.167 397.284 444.841 397.284C443.902 397.284 443.102 397.129 442.443 396.818C441.792 396.508 441.258 396.117 440.841 395.648C440.424 395.17 440.106 394.689 439.886 394.205H439.67V397H434.898ZM439.636 388.273C439.636 389.311 439.78 390.216 440.068 390.989C440.356 391.761 440.773 392.364 441.318 392.795C441.864 393.22 442.527 393.432 443.307 393.432C444.095 393.432 444.761 393.216 445.307 392.784C445.852 392.345 446.265 391.739 446.545 390.966C446.833 390.186 446.977 389.288 446.977 388.273C446.977 387.265 446.837 386.379 446.557 385.614C446.277 384.848 445.864 384.25 445.318 383.818C444.773 383.386 444.102 383.17 443.307 383.17C442.519 383.17 441.852 383.379 441.307 383.795C440.769 384.212 440.356 384.803 440.068 385.568C439.78 386.333 439.636 387.235 439.636 388.273ZM466.344 389.568V379.545H471.185V397H466.537V393.83H466.355C465.961 394.852 465.306 395.674 464.389 396.295C463.48 396.917 462.37 397.227 461.06 397.227C459.893 397.227 458.866 396.962 457.98 396.432C457.094 395.902 456.401 395.148 455.901 394.17C455.408 393.193 455.158 392.023 455.151 390.659V379.545H459.991V389.795C459.999 390.826 460.276 391.64 460.821 392.239C461.366 392.837 462.098 393.136 463.014 393.136C463.598 393.136 464.143 393.004 464.651 392.739C465.158 392.466 465.567 392.064 465.878 391.534C466.196 391.004 466.351 390.348 466.344 389.568ZM475.057 397V379.545H479.898V397H475.057ZM477.489 377.295C476.769 377.295 476.152 377.057 475.636 376.58C475.129 376.095 474.875 375.515 474.875 374.841C474.875 374.174 475.129 373.602 475.636 373.125C476.152 372.64 476.769 372.398 477.489 372.398C478.208 372.398 478.822 372.64 479.33 373.125C479.845 373.602 480.102 374.174 480.102 374.841C480.102 375.515 479.845 376.095 479.33 376.58C478.822 377.057 478.208 377.295 477.489 377.295ZM488.616 373.727V397H483.776V373.727H488.616ZM501.778 379.545V383.182H491.267V379.545H501.778ZM493.653 375.364H498.494V391.636C498.494 392.083 498.563 392.432 498.699 392.682C498.835 392.924 499.025 393.095 499.267 393.193C499.517 393.292 499.805 393.341 500.131 393.341C500.358 393.341 500.585 393.322 500.812 393.284C501.04 393.239 501.214 393.205 501.335 393.182L502.097 396.784C501.854 396.86 501.513 396.947 501.074 397.045C500.634 397.152 500.1 397.216 499.472 397.239C498.305 397.284 497.282 397.129 496.403 396.773C495.532 396.417 494.854 395.864 494.369 395.114C493.884 394.364 493.646 393.417 493.653 392.273V375.364ZM517.315 397.33C516.202 397.33 515.209 397.136 514.338 396.75C513.467 396.356 512.777 395.777 512.27 395.011C511.77 394.239 511.52 393.277 511.52 392.125C511.52 391.155 511.698 390.341 512.054 389.682C512.41 389.023 512.895 388.492 513.509 388.091C514.122 387.689 514.819 387.386 515.599 387.182C516.387 386.977 517.213 386.833 518.077 386.75C519.092 386.644 519.91 386.545 520.531 386.455C521.152 386.356 521.603 386.212 521.884 386.023C522.164 385.833 522.304 385.553 522.304 385.182V385.114C522.304 384.394 522.077 383.837 521.622 383.443C521.175 383.049 520.539 382.852 519.713 382.852C518.842 382.852 518.149 383.045 517.634 383.432C517.118 383.811 516.777 384.288 516.611 384.864L512.134 384.5C512.361 383.439 512.808 382.523 513.474 381.75C514.141 380.97 515.001 380.371 516.054 379.955C517.115 379.53 518.342 379.318 519.736 379.318C520.705 379.318 521.634 379.432 522.52 379.659C523.414 379.886 524.205 380.239 524.895 380.716C525.592 381.193 526.141 381.807 526.543 382.557C526.944 383.299 527.145 384.189 527.145 385.227V397H522.554V394.58H522.418C522.137 395.125 521.762 395.606 521.293 396.023C520.823 396.432 520.259 396.754 519.599 396.989C518.94 397.216 518.179 397.33 517.315 397.33ZM518.702 393.989C519.414 393.989 520.043 393.848 520.588 393.568C521.134 393.28 521.562 392.894 521.872 392.409C522.183 391.924 522.338 391.375 522.338 390.761V388.909C522.187 389.008 521.978 389.098 521.713 389.182C521.455 389.258 521.164 389.33 520.838 389.398C520.512 389.458 520.187 389.515 519.861 389.568C519.535 389.614 519.24 389.655 518.974 389.693C518.406 389.777 517.91 389.909 517.486 390.091C517.062 390.273 516.732 390.519 516.497 390.83C516.262 391.133 516.145 391.511 516.145 391.966C516.145 392.625 516.384 393.129 516.861 393.477C517.346 393.818 517.959 393.989 518.702 393.989ZM535.741 386.909V397H530.901V379.545H535.514V382.625H535.719C536.105 381.61 536.753 380.807 537.662 380.216C538.571 379.617 539.673 379.318 540.969 379.318C542.181 379.318 543.238 379.583 544.139 380.114C545.041 380.644 545.741 381.402 546.241 382.386C546.741 383.364 546.991 384.53 546.991 385.886V397H542.151V386.75C542.158 385.682 541.885 384.848 541.332 384.25C540.779 383.644 540.018 383.341 539.048 383.341C538.397 383.341 537.821 383.481 537.321 383.761C536.829 384.042 536.442 384.451 536.162 384.989C535.889 385.519 535.749 386.159 535.741 386.909ZM555.648 386.909V397H550.807V379.545H555.42V382.625H555.625C556.011 381.61 556.659 380.807 557.568 380.216C558.477 379.617 559.58 379.318 560.875 379.318C562.087 379.318 563.144 379.583 564.045 380.114C564.947 380.644 565.648 381.402 566.148 382.386C566.648 383.364 566.898 384.53 566.898 385.886V397H562.057V386.75C562.064 385.682 561.792 384.848 561.239 384.25C560.686 383.644 559.924 383.341 558.955 383.341C558.303 383.341 557.727 383.481 557.227 383.761C556.735 384.042 556.348 384.451 556.068 384.989C555.795 385.519 555.655 386.159 555.648 386.909ZM581.906 389.568V379.545H586.747V397H582.099V393.83H581.918C581.524 394.852 580.868 395.674 579.952 396.295C579.043 396.917 577.933 397.227 576.622 397.227C575.455 397.227 574.429 396.962 573.543 396.432C572.656 395.902 571.963 395.148 571.463 394.17C570.971 393.193 570.721 392.023 570.713 390.659V379.545H575.554V389.795C575.562 390.826 575.838 391.64 576.384 392.239C576.929 392.837 577.66 393.136 578.577 393.136C579.16 393.136 579.705 393.004 580.213 392.739C580.721 392.466 581.13 392.064 581.44 391.534C581.759 391.004 581.914 390.348 581.906 389.568ZM595.597 397.33C594.483 397.33 593.491 397.136 592.619 396.75C591.748 396.356 591.059 395.777 590.551 395.011C590.051 394.239 589.801 393.277 589.801 392.125C589.801 391.155 589.979 390.341 590.335 389.682C590.691 389.023 591.176 388.492 591.79 388.091C592.403 387.689 593.1 387.386 593.881 387.182C594.669 386.977 595.494 386.833 596.358 386.75C597.373 386.644 598.191 386.545 598.812 386.455C599.434 386.356 599.884 386.212 600.165 386.023C600.445 385.833 600.585 385.553 600.585 385.182V385.114C600.585 384.394 600.358 383.837 599.903 383.443C599.456 383.049 598.82 382.852 597.994 382.852C597.123 382.852 596.43 383.045 595.915 383.432C595.4 383.811 595.059 384.288 594.892 384.864L590.415 384.5C590.642 383.439 591.089 382.523 591.756 381.75C592.422 380.97 593.282 380.371 594.335 379.955C595.396 379.53 596.623 379.318 598.017 379.318C598.987 379.318 599.915 379.432 600.801 379.659C601.695 379.886 602.487 380.239 603.176 380.716C603.873 381.193 604.422 381.807 604.824 382.557C605.225 383.299 605.426 384.189 605.426 385.227V397H600.835V394.58H600.699C600.419 395.125 600.044 395.606 599.574 396.023C599.104 396.432 598.54 396.754 597.881 396.989C597.222 397.216 596.46 397.33 595.597 397.33ZM596.983 393.989C597.695 393.989 598.324 393.848 598.869 393.568C599.415 393.28 599.843 392.894 600.153 392.409C600.464 391.924 600.619 391.375 600.619 390.761V388.909C600.468 389.008 600.259 389.098 599.994 389.182C599.737 389.258 599.445 389.33 599.119 389.398C598.794 389.458 598.468 389.515 598.142 389.568C597.816 389.614 597.521 389.655 597.256 389.693C596.688 389.777 596.191 389.909 595.767 390.091C595.343 390.273 595.013 390.519 594.778 390.83C594.544 391.133 594.426 391.511 594.426 391.966C594.426 392.625 594.665 393.129 595.142 393.477C595.627 393.818 596.241 393.989 596.983 393.989ZM614.023 373.727V397H609.182V373.727H614.023ZM622.741 373.727V397H617.901V373.727H622.741ZM629.608 403.545C628.994 403.545 628.419 403.496 627.881 403.398C627.35 403.307 626.911 403.189 626.562 403.045L627.653 399.432C628.222 399.606 628.733 399.701 629.188 399.716C629.65 399.731 630.047 399.625 630.381 399.398C630.722 399.17 630.998 398.784 631.21 398.239L631.494 397.5L625.233 379.545H630.324L633.938 392.364H634.119L637.767 379.545H642.892L636.108 398.886C635.782 399.826 635.339 400.644 634.778 401.341C634.225 402.045 633.525 402.587 632.676 402.966C631.828 403.352 630.805 403.545 629.608 403.545Z" fill="#C12323"/>
<path d="M54.5341 159.915C50.2216 159.915 46.3774 159.174 43.0014 157.693C39.6473 156.212 36.9792 154.154 34.9972 151.518C33.0369 148.861 31.9697 145.779 31.7955 142.273H40.0284C40.2027 144.429 40.9432 146.291 42.25 147.859C43.5568 149.406 45.2666 150.604 47.3793 151.453C49.492 152.303 51.8333 152.727 54.4034 152.727C57.2784 152.727 59.8267 152.226 62.0483 151.224C64.2699 150.223 66.0123 148.829 67.2756 147.043C68.5388 145.257 69.1705 143.188 69.1705 140.835C69.1705 138.374 68.5606 136.207 67.3409 134.334C66.1212 132.439 64.3352 130.958 61.983 129.891C59.6307 128.823 56.7557 128.29 53.358 128.29H48V121.102H53.358C56.0152 121.102 58.3456 120.623 60.3494 119.665C62.375 118.706 63.9541 117.356 65.0866 115.614C66.241 113.871 66.8182 111.824 66.8182 109.472C66.8182 107.206 66.3172 105.235 65.3153 103.558C64.3134 101.881 62.8977 100.574 61.0682 99.6378C59.2604 98.7012 57.1259 98.233 54.6648 98.233C52.3561 98.233 50.178 98.6577 48.1307 99.5071C46.1051 100.335 44.4498 101.544 43.1648 103.134C41.8797 104.702 41.1828 106.597 41.0739 108.818H33.233C33.3636 105.312 34.42 102.241 36.402 99.6051C38.384 96.9479 40.9759 94.8788 44.1776 93.3977C47.401 91.9167 50.9403 91.1761 54.7955 91.1761C58.9337 91.1761 62.4839 92.0147 65.446 93.6918C68.4081 95.3471 70.6842 97.536 72.2741 100.259C73.8641 102.981 74.6591 105.921 74.6591 109.08C74.6591 112.848 73.6681 116.06 71.6861 118.717C69.7259 121.375 67.0578 123.215 63.6818 124.239V124.761C67.9072 125.458 71.2069 127.255 73.581 130.152C75.955 133.027 77.142 136.588 77.142 140.835C77.142 144.473 76.151 147.74 74.169 150.636C72.2088 153.511 69.5298 155.777 66.1321 157.432C62.7344 159.087 58.8684 159.915 54.5341 159.915ZM112.72 159.915C109.976 159.871 107.232 159.348 104.487 158.347C101.743 157.345 99.2382 155.657 96.973 153.283C94.7079 150.887 92.8892 147.652 91.517 143.58C90.1449 139.485 89.4588 134.345 89.4588 128.159C89.4588 122.235 90.0142 116.986 91.125 112.412C92.2358 107.816 93.8475 103.95 95.9602 100.814C98.0729 97.6558 100.621 95.2599 103.605 93.6264C106.611 91.9929 109.998 91.1761 113.766 91.1761C117.512 91.1761 120.844 91.9276 123.763 93.4304C126.703 94.9115 129.099 96.9806 130.95 99.6378C132.802 102.295 134 105.355 134.544 108.818H126.572C125.832 105.812 124.394 103.319 122.26 101.337C120.125 99.3546 117.294 98.3636 113.766 98.3636C108.582 98.3636 104.498 100.618 101.514 105.126C98.5521 109.635 97.0601 115.962 97.0384 124.108H97.5611C98.7808 122.257 100.229 120.678 101.906 119.371C103.605 118.042 105.478 117.018 107.526 116.3C109.573 115.581 111.74 115.222 114.027 115.222C117.86 115.222 121.367 116.18 124.547 118.097C127.727 119.991 130.275 122.616 132.192 125.97C134.108 129.303 135.067 133.125 135.067 137.438C135.067 141.576 134.141 145.366 132.29 148.807C130.438 152.226 127.836 154.949 124.482 156.974C121.149 158.978 117.229 159.958 112.72 159.915ZM112.72 152.727C115.464 152.727 117.926 152.041 120.104 150.669C122.304 149.297 124.035 147.456 125.298 145.148C126.583 142.839 127.226 140.269 127.226 137.438C127.226 134.671 126.605 132.156 125.364 129.891C124.144 127.604 122.456 125.785 120.3 124.435C118.165 123.084 115.726 122.409 112.982 122.409C110.912 122.409 108.985 122.823 107.199 123.651C105.413 124.456 103.845 125.567 102.494 126.983C101.166 128.399 100.12 130.021 99.358 131.851C98.5956 133.659 98.2145 135.564 98.2145 137.568C98.2145 140.225 98.8352 142.708 100.077 145.017C101.34 147.326 103.061 149.188 105.239 150.604C107.438 152.019 109.932 152.727 112.72 152.727ZM168.824 159.915C164.99 159.915 161.538 159.152 158.467 157.628C155.396 156.103 152.935 154.012 151.083 151.355C149.232 148.698 148.219 145.67 148.045 142.273H155.886C156.191 145.3 157.563 147.805 160.002 149.787C162.464 151.747 165.404 152.727 168.824 152.727C171.568 152.727 174.007 152.085 176.142 150.8C178.298 149.515 179.986 147.75 181.206 145.507C182.447 143.242 183.068 140.683 183.068 137.83C183.068 134.911 182.425 132.308 181.14 130.021C179.877 127.713 178.135 125.894 175.913 124.565C173.691 123.237 171.154 122.562 168.301 122.54C166.253 122.518 164.152 122.834 161.995 123.487C159.839 124.119 158.064 124.936 156.67 125.938L149.091 125.023L153.142 92.0909H187.903V99.2784H159.937L157.585 119.011H157.977C159.349 117.922 161.07 117.018 163.139 116.3C165.208 115.581 167.364 115.222 169.608 115.222C173.702 115.222 177.35 116.202 180.552 118.162C183.776 120.1 186.302 122.758 188.132 126.134C189.983 129.509 190.909 133.365 190.909 137.699C190.909 141.968 189.95 145.779 188.034 149.134C186.139 152.466 183.525 155.101 180.193 157.04C176.86 158.956 173.071 159.915 168.824 159.915ZM213.002 149.852L212.479 153.381C212.109 155.864 211.543 158.521 210.781 161.352C210.04 164.184 209.267 166.852 208.461 169.357C207.655 171.861 206.991 173.854 206.468 175.335H200.587C200.871 173.941 201.241 172.101 201.698 169.814C202.156 167.527 202.613 164.968 203.07 162.136C203.549 159.327 203.942 156.452 204.246 153.511L204.638 149.852H213.002ZM246.645 159.915C241.722 159.915 237.529 158.575 234.066 155.896C230.603 153.196 227.957 149.286 226.127 144.168C224.298 139.027 223.383 132.82 223.383 125.545C223.383 118.314 224.298 112.14 226.127 107.021C227.979 101.881 230.636 97.9607 234.099 95.2599C237.584 92.5374 241.766 91.1761 246.645 91.1761C251.523 91.1761 255.694 92.5374 259.157 95.2599C262.642 97.9607 265.299 101.881 267.129 107.021C268.98 112.14 269.906 118.314 269.906 125.545C269.906 132.82 268.991 139.027 267.162 144.168C265.332 149.286 262.686 153.196 259.223 155.896C255.76 158.575 251.567 159.915 246.645 159.915ZM246.645 152.727C251.523 152.727 255.313 150.375 258.014 145.67C260.715 140.966 262.065 134.258 262.065 125.545C262.065 119.752 261.444 114.819 260.203 110.746C258.983 106.673 257.219 103.569 254.91 101.435C252.623 99.3002 249.868 98.233 246.645 98.233C241.809 98.233 238.03 100.618 235.308 105.388C232.585 110.136 231.224 116.855 231.224 125.545C231.224 131.339 231.834 136.261 233.054 140.312C234.273 144.364 236.027 147.446 238.314 149.558C240.622 151.671 243.399 152.727 246.645 152.727ZM304.145 159.915C299.222 159.915 295.029 158.575 291.566 155.896C288.103 153.196 285.457 149.286 283.627 144.168C281.798 139.027 280.883 132.82 280.883 125.545C280.883 118.314 281.798 112.14 283.627 107.021C285.479 101.881 288.136 97.9607 291.599 95.2599C295.084 92.5374 299.266 91.1761 304.145 91.1761C309.023 91.1761 313.194 92.5374 316.657 95.2599C320.142 97.9607 322.799 101.881 324.629 107.021C326.48 112.14 327.406 118.314 327.406 125.545C327.406 132.82 326.491 139.027 324.662 144.168C322.832 149.286 320.186 153.196 316.723 155.896C313.26 158.575 309.067 159.915 304.145 159.915ZM304.145 152.727C309.023 152.727 312.813 150.375 315.514 145.67C318.215 140.966 319.565 134.258 319.565 125.545C319.565 119.752 318.944 114.819 317.703 110.746C316.483 106.673 314.719 103.569 312.41 101.435C310.123 99.3002 307.368 98.233 304.145 98.233C299.309 98.233 295.53 100.618 292.808 105.388C290.085 110.136 288.724 116.855 288.724 125.545C288.724 131.339 289.334 136.261 290.554 140.312C291.773 144.364 293.527 147.446 295.814 149.558C298.122 151.671 300.899 152.727 304.145 152.727ZM361.645 159.915C356.722 159.915 352.529 158.575 349.066 155.896C345.603 153.196 342.957 149.286 341.127 144.168C339.298 139.027 338.383 132.82 338.383 125.545C338.383 118.314 339.298 112.14 341.127 107.021C342.979 101.881 345.636 97.9607 349.099 95.2599C352.584 92.5374 356.766 91.1761 361.645 91.1761C366.523 91.1761 370.694 92.5374 374.157 95.2599C377.642 97.9607 380.299 101.881 382.129 107.021C383.98 112.14 384.906 118.314 384.906 125.545C384.906 132.82 383.991 139.027 382.162 144.168C380.332 149.286 377.686 153.196 374.223 155.896C370.76 158.575 366.567 159.915 361.645 159.915ZM361.645 152.727C366.523 152.727 370.313 150.375 373.014 145.67C375.715 140.966 377.065 134.258 377.065 125.545C377.065 119.752 376.444 114.819 375.203 110.746C373.983 106.673 372.219 103.569 369.91 101.435C367.623 99.3002 364.868 98.233 361.645 98.233C356.809 98.233 353.03 100.618 350.308 105.388C347.585 110.136 346.224 116.855 346.224 125.545C346.224 131.339 346.834 136.261 348.054 140.312C349.273 144.364 351.027 147.446 353.314 149.558C355.622 151.671 358.399 152.727 361.645 152.727Z" fill="white"/>
<path d="M42.5909 373.727V397H39.7727V376.682H39.6364L33.9545 380.455V377.591L39.7727 373.727H42.5909ZM50.0114 397L60.4205 376.409V376.227H48.4205V373.727H63.3295V376.364L52.9659 397H50.0114ZM67.6108 393.818L67.429 395.045C67.3002 395.909 67.1032 396.833 66.8381 397.818C66.5805 398.803 66.3116 399.731 66.0312 400.602C65.7509 401.473 65.5199 402.167 65.3381 402.682H63.2926C63.3911 402.197 63.5199 401.557 63.679 400.761C63.8381 399.966 63.9972 399.076 64.1562 398.091C64.3229 397.114 64.4593 396.114 64.5653 395.091L64.7017 393.818H67.6108ZM79.3125 397.318C77.6004 397.318 76.142 396.852 74.9375 395.92C73.733 394.981 72.8125 393.621 72.1761 391.841C71.5398 390.053 71.2216 387.894 71.2216 385.364C71.2216 382.848 71.5398 380.701 72.1761 378.92C72.8201 377.133 73.7443 375.769 74.9489 374.83C76.161 373.883 77.6155 373.409 79.3125 373.409C81.0095 373.409 82.4602 373.883 83.6648 374.83C84.8769 375.769 85.8011 377.133 86.4375 378.92C87.0814 380.701 87.4034 382.848 87.4034 385.364C87.4034 387.894 87.0852 390.053 86.4489 391.841C85.8125 393.621 84.892 394.981 83.6875 395.92C82.483 396.852 81.0246 397.318 79.3125 397.318ZM79.3125 394.818C81.0095 394.818 82.3277 394 83.267 392.364C84.2064 390.727 84.6761 388.394 84.6761 385.364C84.6761 383.348 84.4602 381.633 84.0284 380.216C83.6042 378.799 82.9905 377.72 82.1875 376.977C81.392 376.235 80.4337 375.864 79.3125 375.864C77.6307 375.864 76.3163 376.693 75.3693 378.352C74.4223 380.004 73.9489 382.341 73.9489 385.364C73.9489 387.379 74.161 389.091 74.5852 390.5C75.0095 391.909 75.6193 392.981 76.4148 393.716C77.2178 394.451 78.1837 394.818 79.3125 394.818ZM99.3125 397.318C97.6004 397.318 96.142 396.852 94.9375 395.92C93.733 394.981 92.8125 393.621 92.1761 391.841C91.5398 390.053 91.2216 387.894 91.2216 385.364C91.2216 382.848 91.5398 380.701 92.1761 378.92C92.8201 377.133 93.7443 375.769 94.9489 374.83C96.161 373.883 97.6155 373.409 99.3125 373.409C101.009 373.409 102.46 373.883 103.665 374.83C104.877 375.769 105.801 377.133 106.438 378.92C107.081 380.701 107.403 382.848 107.403 385.364C107.403 387.894 107.085 390.053 106.449 391.841C105.812 393.621 104.892 394.981 103.688 395.92C102.483 396.852 101.025 397.318 99.3125 397.318ZM99.3125 394.818C101.009 394.818 102.328 394 103.267 392.364C104.206 390.727 104.676 388.394 104.676 385.364C104.676 383.348 104.46 381.633 104.028 380.216C103.604 378.799 102.991 377.72 102.188 376.977C101.392 376.235 100.434 375.864 99.3125 375.864C97.6307 375.864 96.3163 376.693 95.3693 378.352C94.4223 380.004 93.9489 382.341 93.9489 385.364C93.9489 387.379 94.161 389.091 94.5852 390.5C95.0095 391.909 95.6193 392.981 96.4148 393.716C97.2178 394.451 98.1837 394.818 99.3125 394.818ZM119.312 397.318C117.6 397.318 116.142 396.852 114.938 395.92C113.733 394.981 112.813 393.621 112.176 391.841C111.54 390.053 111.222 387.894 111.222 385.364C111.222 382.848 111.54 380.701 112.176 378.92C112.82 377.133 113.744 375.769 114.949 374.83C116.161 373.883 117.616 373.409 119.312 373.409C121.009 373.409 122.46 373.883 123.665 374.83C124.877 375.769 125.801 377.133 126.438 378.92C127.081 380.701 127.403 382.848 127.403 385.364C127.403 387.894 127.085 390.053 126.449 391.841C125.812 393.621 124.892 394.981 123.688 395.92C122.483 396.852 121.025 397.318 119.312 397.318ZM119.312 394.818C121.009 394.818 122.328 394 123.267 392.364C124.206 390.727 124.676 388.394 124.676 385.364C124.676 383.348 124.46 381.633 124.028 380.216C123.604 378.799 122.991 377.72 122.188 376.977C121.392 376.235 120.434 375.864 119.312 375.864C117.631 375.864 116.316 376.693 115.369 378.352C114.422 380.004 113.949 382.341 113.949 385.364C113.949 387.379 114.161 389.091 114.585 390.5C115.009 391.909 115.619 392.981 116.415 393.716C117.218 394.451 118.184 394.818 119.312 394.818Z" fill="white"/>
</svg>
