<svg width="1037" height="576" viewBox="0 0 1037 576" fill="none" xmlns="http://www.w3.org/2000/svg">
<path d="M238.461 566.408L244.435 546.72H258.872L280.777 495.229L254.392 491.19L227.011 541.167H218.548V514.917L231.491 482.103L244.435 476.55L280.777 473.017L302.183 416.477L314.629 368.519L331.057 340.754L340.018 352.365V391.741L347.486 401.837V387.197L352.962 356.908L370.884 326.114L384.823 302.892L419.671 260.487L446.554 240.294L459 225.15L437.095 206.472L402.745 166.086H397.269V140.845L407.226 132.263L402.745 105.507L384.823 75.2182L340.018 25.241V0H320.603V13.6301H309.153L273.309 41.3953V66.1315H254.392L238.461 80.2664H210.085H190.171L175.236 95.411L169.262 132.263L151.341 155.485L138.397 161.543L126.449 151.446H109.523L97.077 155.485L73.679 132.263L61.731 151.446H44.8048L36.3416 140.845L24.3937 137.311L9.95662 122.167L0 126.71L6.4718 140.845L19.4154 151.446L9.95662 155.485V166.086L32.359 172.649L19.4154 179.211V190.317L28.3764 196.375L24.3937 206.472L6.4718 219.597V233.227L0 240.294L9.95662 252.915H24.3937L32.359 240.294L44.8048 225.15L70.1941 233.227H81.1464H90.1074L97.077 247.362V260.487L81.1464 286.233L97.077 326.114L90.1074 332.172L103.051 346.812L114.999 356.908L138.397 360.442L151.341 352.365V360.442L175.236 383.159L180.713 398.303L190.171 412.943L186.189 423.039L180.713 437.679L194.652 465.949L90.1074 514.917L109.523 536.624L126.449 559.846L164.284 576H190.171H231.491L238.461 566.408Z" fill="#C12323"/>
<circle cx="783" cy="306" r="254" fill="#C12323"/>
<path d="M205.591 289.727V313H202.773V292.682H202.636L196.955 296.455V293.591L202.773 289.727H205.591ZM219.875 313.318C218.163 313.318 216.705 312.852 215.5 311.92C214.295 310.981 213.375 309.621 212.739 307.841C212.102 306.053 211.784 303.894 211.784 301.364C211.784 298.848 212.102 296.701 212.739 294.92C213.383 293.133 214.307 291.769 215.511 290.83C216.723 289.883 218.178 289.409 219.875 289.409C221.572 289.409 223.023 289.883 224.227 290.83C225.439 291.769 226.364 293.133 227 294.92C227.644 296.701 227.966 298.848 227.966 301.364C227.966 303.894 227.648 306.053 227.011 307.841C226.375 309.621 225.455 310.981 224.25 311.92C223.045 312.852 221.587 313.318 219.875 313.318ZM219.875 310.818C221.572 310.818 222.89 310 223.83 308.364C224.769 306.727 225.239 304.394 225.239 301.364C225.239 299.348 225.023 297.633 224.591 296.216C224.167 294.799 223.553 293.72 222.75 292.977C221.955 292.235 220.996 291.864 219.875 291.864C218.193 291.864 216.879 292.693 215.932 294.352C214.985 296.004 214.511 298.341 214.511 301.364C214.511 303.379 214.723 305.091 215.148 306.5C215.572 307.909 216.182 308.981 216.977 309.716C217.78 310.451 218.746 310.818 219.875 310.818ZM240.466 289.727V313H237.648V292.682H237.511L231.83 296.455V293.591L237.648 289.727H240.466ZM249.705 306.636L249.659 303.318H250.205L257.841 295.545H261.159L253.023 303.773H252.795L249.705 306.636ZM247.205 313V289.727H249.886V313H247.205ZM258.295 313L251.477 304.364L253.386 302.5L261.705 313H258.295ZM264.611 313V295.545H267.202V298.273H267.429C267.793 297.341 268.38 296.617 269.19 296.102C270.001 295.58 270.974 295.318 272.111 295.318C273.262 295.318 274.221 295.58 274.986 296.102C275.759 296.617 276.361 297.341 276.793 298.273H276.974C277.421 297.371 278.092 296.655 278.986 296.125C279.88 295.587 280.952 295.318 282.202 295.318C283.762 295.318 285.039 295.807 286.031 296.784C287.024 297.754 287.52 299.265 287.52 301.318V313H284.838V301.318C284.838 300.03 284.486 299.11 283.781 298.557C283.077 298.004 282.247 297.727 281.293 297.727C280.065 297.727 279.115 298.098 278.44 298.841C277.766 299.576 277.429 300.508 277.429 301.636V313H274.702V301.045C274.702 300.053 274.38 299.254 273.736 298.648C273.092 298.034 272.262 297.727 271.247 297.727C270.55 297.727 269.899 297.913 269.293 298.284C268.694 298.655 268.209 299.17 267.838 299.83C267.474 300.481 267.293 301.235 267.293 302.091V313H264.611Z" fill="white"/>
<path d="M294.43 300V298.786L298.991 293.793C299.527 293.208 299.968 292.7 300.314 292.268C300.66 291.831 300.917 291.422 301.083 291.04C301.254 290.653 301.339 290.248 301.339 289.825C301.339 289.339 301.223 288.919 300.989 288.564C300.759 288.208 300.444 287.934 300.044 287.74C299.644 287.547 299.194 287.45 298.695 287.45C298.164 287.45 297.701 287.56 297.305 287.781C296.913 287.997 296.61 288.3 296.394 288.692C296.182 289.083 296.077 289.542 296.077 290.068H294.484C294.484 289.259 294.671 288.548 295.044 287.936C295.418 287.324 295.926 286.848 296.569 286.506C297.217 286.164 297.943 285.993 298.749 285.993C299.558 285.993 300.276 286.164 300.901 286.506C301.526 286.848 302.016 287.309 302.372 287.889C302.727 288.469 302.905 289.115 302.905 289.825C302.905 290.334 302.813 290.831 302.628 291.316C302.448 291.798 302.133 292.335 301.684 292.929C301.238 293.518 300.62 294.238 299.828 295.088L296.724 298.408V298.516H303.148V300H294.43Z" fill="white"/>
<path d="M173.663 272V248.727H182.982C184.694 248.727 186.122 248.981 187.266 249.489C188.41 249.996 189.269 250.701 189.845 251.602C190.421 252.496 190.709 253.527 190.709 254.693C190.709 255.602 190.527 256.402 190.163 257.091C189.8 257.773 189.3 258.333 188.663 258.773C188.035 259.205 187.315 259.511 186.504 259.693V259.92C187.391 259.958 188.22 260.208 188.993 260.67C189.773 261.133 190.406 261.78 190.891 262.614C191.375 263.439 191.618 264.424 191.618 265.568C191.618 266.803 191.311 267.905 190.697 268.875C190.091 269.837 189.194 270.598 188.004 271.159C186.815 271.72 185.349 272 183.607 272H173.663ZM178.584 267.977H182.595C183.966 267.977 184.966 267.716 185.595 267.193C186.224 266.663 186.538 265.958 186.538 265.08C186.538 264.436 186.383 263.867 186.072 263.375C185.762 262.883 185.319 262.496 184.743 262.216C184.175 261.936 183.497 261.795 182.709 261.795H178.584V267.977ZM178.584 258.466H182.232C182.906 258.466 183.504 258.348 184.027 258.114C184.557 257.871 184.974 257.53 185.277 257.091C185.588 256.652 185.743 256.125 185.743 255.511C185.743 254.67 185.444 253.992 184.845 253.477C184.254 252.962 183.413 252.705 182.322 252.705H178.584V258.466ZM199.706 272.33C198.592 272.33 197.6 272.136 196.729 271.75C195.857 271.356 195.168 270.777 194.661 270.011C194.161 269.239 193.911 268.277 193.911 267.125C193.911 266.155 194.089 265.341 194.445 264.682C194.801 264.023 195.286 263.492 195.899 263.091C196.513 262.689 197.21 262.386 197.99 262.182C198.778 261.977 199.604 261.833 200.467 261.75C201.482 261.644 202.301 261.545 202.922 261.455C203.543 261.356 203.994 261.212 204.274 261.023C204.554 260.833 204.695 260.553 204.695 260.182V260.114C204.695 259.394 204.467 258.837 204.013 258.443C203.566 258.049 202.929 257.852 202.104 257.852C201.232 257.852 200.539 258.045 200.024 258.432C199.509 258.811 199.168 259.288 199.001 259.864L194.524 259.5C194.751 258.439 195.198 257.523 195.865 256.75C196.532 255.97 197.392 255.371 198.445 254.955C199.505 254.53 200.732 254.318 202.126 254.318C203.096 254.318 204.024 254.432 204.911 254.659C205.804 254.886 206.596 255.239 207.286 255.716C207.982 256.193 208.532 256.807 208.933 257.557C209.335 258.299 209.536 259.189 209.536 260.227V272H204.945V269.58H204.808C204.528 270.125 204.153 270.606 203.683 271.023C203.214 271.432 202.649 271.754 201.99 271.989C201.331 272.216 200.57 272.33 199.706 272.33ZM201.092 268.989C201.804 268.989 202.433 268.848 202.979 268.568C203.524 268.28 203.952 267.894 204.263 267.409C204.573 266.924 204.729 266.375 204.729 265.761V263.909C204.577 264.008 204.369 264.098 204.104 264.182C203.846 264.258 203.554 264.33 203.229 264.398C202.903 264.458 202.577 264.515 202.251 264.568C201.926 264.614 201.63 264.655 201.365 264.693C200.797 264.777 200.301 264.909 199.876 265.091C199.452 265.273 199.123 265.519 198.888 265.83C198.653 266.133 198.536 266.511 198.536 266.966C198.536 267.625 198.774 268.129 199.251 268.477C199.736 268.818 200.35 268.989 201.092 268.989ZM213.291 272V254.545H217.984V257.591H218.166C218.484 256.508 219.018 255.689 219.768 255.136C220.518 254.576 221.382 254.295 222.359 254.295C222.602 254.295 222.863 254.311 223.143 254.341C223.424 254.371 223.67 254.413 223.882 254.466V258.761C223.655 258.693 223.34 258.633 222.939 258.58C222.537 258.527 222.17 258.5 221.837 258.5C221.125 258.5 220.488 258.655 219.928 258.966C219.375 259.269 218.935 259.693 218.609 260.239C218.291 260.784 218.132 261.413 218.132 262.125V272H213.291ZM233.459 272.341C231.671 272.341 230.133 271.962 228.845 271.205C227.565 270.439 226.58 269.379 225.891 268.023C225.209 266.667 224.868 265.106 224.868 263.341C224.868 261.553 225.213 259.985 225.902 258.636C226.599 257.28 227.588 256.223 228.868 255.466C230.148 254.701 231.671 254.318 233.436 254.318C234.959 254.318 236.292 254.595 237.436 255.148C238.58 255.701 239.485 256.477 240.152 257.477C240.819 258.477 241.186 259.652 241.254 261H236.686C236.557 260.129 236.216 259.428 235.663 258.898C235.118 258.36 234.402 258.091 233.516 258.091C232.766 258.091 232.11 258.295 231.55 258.705C230.997 259.106 230.565 259.693 230.254 260.466C229.944 261.239 229.788 262.174 229.788 263.273C229.788 264.386 229.94 265.333 230.243 266.114C230.554 266.894 230.989 267.489 231.55 267.898C232.11 268.307 232.766 268.511 233.516 268.511C234.069 268.511 234.565 268.398 235.004 268.17C235.451 267.943 235.819 267.614 236.107 267.182C236.402 266.742 236.595 266.216 236.686 265.602H241.254C241.179 266.936 240.815 268.11 240.163 269.125C239.519 270.133 238.629 270.92 237.493 271.489C236.357 272.057 235.012 272.341 233.459 272.341ZM252.308 272.341C250.513 272.341 248.967 271.977 247.672 271.25C246.384 270.515 245.392 269.477 244.695 268.136C243.998 266.788 243.649 265.193 243.649 263.352C243.649 261.557 243.998 259.981 244.695 258.625C245.392 257.269 246.373 256.212 247.638 255.455C248.911 254.697 250.403 254.318 252.115 254.318C253.267 254.318 254.339 254.504 255.331 254.875C256.331 255.239 257.202 255.788 257.945 256.523C258.695 257.258 259.278 258.182 259.695 259.295C260.111 260.402 260.32 261.697 260.32 263.182V264.511H245.581V261.511H255.763C255.763 260.814 255.611 260.197 255.308 259.659C255.005 259.121 254.585 258.701 254.047 258.398C253.517 258.087 252.899 257.932 252.195 257.932C251.46 257.932 250.808 258.102 250.24 258.443C249.679 258.777 249.24 259.227 248.922 259.795C248.604 260.356 248.441 260.981 248.433 261.67V264.523C248.433 265.386 248.592 266.133 248.911 266.761C249.236 267.39 249.695 267.875 250.286 268.216C250.876 268.557 251.577 268.727 252.388 268.727C252.926 268.727 253.418 268.652 253.865 268.5C254.312 268.348 254.695 268.121 255.013 267.818C255.331 267.515 255.573 267.144 255.74 266.705L260.217 267C259.99 268.076 259.524 269.015 258.82 269.818C258.123 270.614 257.221 271.235 256.115 271.682C255.017 272.121 253.748 272.341 252.308 272.341ZM268.32 248.727V272H263.479V248.727H268.32ZM280.084 272.341C278.319 272.341 276.792 271.966 275.504 271.216C274.224 270.458 273.235 269.405 272.538 268.057C271.841 266.701 271.493 265.129 271.493 263.341C271.493 261.538 271.841 259.962 272.538 258.614C273.235 257.258 274.224 256.205 275.504 255.455C276.792 254.697 278.319 254.318 280.084 254.318C281.849 254.318 283.372 254.697 284.652 255.455C285.94 256.205 286.932 257.258 287.629 258.614C288.326 259.962 288.675 261.538 288.675 263.341C288.675 265.129 288.326 266.701 287.629 268.057C286.932 269.405 285.94 270.458 284.652 271.216C283.372 271.966 281.849 272.341 280.084 272.341ZM280.107 268.591C280.91 268.591 281.58 268.364 282.118 267.909C282.656 267.447 283.061 266.818 283.334 266.023C283.614 265.227 283.754 264.322 283.754 263.307C283.754 262.292 283.614 261.386 283.334 260.591C283.061 259.795 282.656 259.167 282.118 258.705C281.58 258.242 280.91 258.011 280.107 258.011C279.296 258.011 278.614 258.242 278.061 258.705C277.516 259.167 277.103 259.795 276.822 260.591C276.55 261.386 276.413 262.292 276.413 263.307C276.413 264.322 276.55 265.227 276.822 266.023C277.103 266.818 277.516 267.447 278.061 267.909C278.614 268.364 279.296 268.591 280.107 268.591ZM296.663 261.909V272H291.822V254.545H296.436V257.625H296.641C297.027 256.61 297.675 255.807 298.584 255.216C299.493 254.617 300.595 254.318 301.891 254.318C303.103 254.318 304.16 254.583 305.061 255.114C305.963 255.644 306.663 256.402 307.163 257.386C307.663 258.364 307.913 259.53 307.913 260.886V272H303.072V261.75C303.08 260.682 302.807 259.848 302.254 259.25C301.701 258.644 300.94 258.341 299.97 258.341C299.319 258.341 298.743 258.481 298.243 258.761C297.75 259.042 297.364 259.451 297.084 259.989C296.811 260.519 296.671 261.159 296.663 261.909ZM316.706 272.33C315.592 272.33 314.6 272.136 313.729 271.75C312.857 271.356 312.168 270.777 311.661 270.011C311.161 269.239 310.911 268.277 310.911 267.125C310.911 266.155 311.089 265.341 311.445 264.682C311.801 264.023 312.286 263.492 312.899 263.091C313.513 262.689 314.21 262.386 314.99 262.182C315.778 261.977 316.604 261.833 317.467 261.75C318.482 261.644 319.301 261.545 319.922 261.455C320.543 261.356 320.994 261.212 321.274 261.023C321.554 260.833 321.695 260.553 321.695 260.182V260.114C321.695 259.394 321.467 258.837 321.013 258.443C320.566 258.049 319.929 257.852 319.104 257.852C318.232 257.852 317.539 258.045 317.024 258.432C316.509 258.811 316.168 259.288 316.001 259.864L311.524 259.5C311.751 258.439 312.198 257.523 312.865 256.75C313.532 255.97 314.392 255.371 315.445 254.955C316.505 254.53 317.732 254.318 319.126 254.318C320.096 254.318 321.024 254.432 321.911 254.659C322.804 254.886 323.596 255.239 324.286 255.716C324.982 256.193 325.532 256.807 325.933 257.557C326.335 258.299 326.536 259.189 326.536 260.227V272H321.945V269.58H321.808C321.528 270.125 321.153 270.606 320.683 271.023C320.214 271.432 319.649 271.754 318.99 271.989C318.331 272.216 317.57 272.33 316.706 272.33ZM318.092 268.989C318.804 268.989 319.433 268.848 319.979 268.568C320.524 268.28 320.952 267.894 321.263 267.409C321.573 266.924 321.729 266.375 321.729 265.761V263.909C321.577 264.008 321.369 264.098 321.104 264.182C320.846 264.258 320.554 264.33 320.229 264.398C319.903 264.458 319.577 264.515 319.251 264.568C318.926 264.614 318.63 264.655 318.365 264.693C317.797 264.777 317.301 264.909 316.876 265.091C316.452 265.273 316.123 265.519 315.888 265.83C315.653 266.133 315.536 266.511 315.536 266.966C315.536 267.625 315.774 268.129 316.251 268.477C316.736 268.818 317.35 268.989 318.092 268.989Z" fill="white"/>
<path d="M735.591 345.727V369H732.773V348.682H732.636L726.955 352.455V349.591L732.773 345.727H735.591ZM742.284 369V366.955L749.966 358.545C750.867 357.561 751.61 356.705 752.193 355.977C752.777 355.242 753.208 354.553 753.489 353.909C753.777 353.258 753.92 352.576 753.92 351.864C753.92 351.045 753.723 350.337 753.33 349.739C752.943 349.14 752.413 348.678 751.739 348.352C751.064 348.027 750.307 347.864 749.466 347.864C748.572 347.864 747.792 348.049 747.125 348.42C746.466 348.784 745.955 349.295 745.591 349.955C745.235 350.614 745.057 351.386 745.057 352.273H742.375C742.375 350.909 742.689 349.712 743.318 348.682C743.947 347.652 744.803 346.848 745.886 346.273C746.977 345.697 748.201 345.409 749.557 345.409C750.92 345.409 752.129 345.697 753.182 346.273C754.235 346.848 755.061 347.625 755.659 348.602C756.258 349.58 756.557 350.667 756.557 351.864C756.557 352.72 756.402 353.557 756.091 354.375C755.788 355.186 755.258 356.091 754.5 357.091C753.75 358.083 752.708 359.295 751.375 360.727L746.148 366.318V366.5H756.966V369H742.284ZM769.114 369.318C767.553 369.318 766.174 369.042 764.977 368.489C763.788 367.928 762.86 367.159 762.193 366.182C761.527 365.197 761.197 364.076 761.205 362.818C761.197 361.833 761.39 360.924 761.784 360.091C762.178 359.25 762.716 358.549 763.398 357.989C764.087 357.42 764.856 357.061 765.705 356.909V356.773C764.591 356.485 763.705 355.86 763.045 354.898C762.386 353.928 762.061 352.826 762.068 351.591C762.061 350.409 762.36 349.352 762.966 348.42C763.572 347.489 764.405 346.754 765.466 346.216C766.534 345.678 767.75 345.409 769.114 345.409C770.462 345.409 771.667 345.678 772.727 346.216C773.788 346.754 774.621 347.489 775.227 348.42C775.841 349.352 776.152 350.409 776.159 351.591C776.152 352.826 775.814 353.928 775.148 354.898C774.489 355.86 773.614 356.485 772.523 356.773V356.909C773.364 357.061 774.121 357.42 774.795 357.989C775.47 358.549 776.008 359.25 776.409 360.091C776.811 360.924 777.015 361.833 777.023 362.818C777.015 364.076 776.674 365.197 776 366.182C775.333 367.159 774.405 367.928 773.216 368.489C772.034 369.042 770.667 369.318 769.114 369.318ZM769.114 366.818C770.167 366.818 771.076 366.648 771.841 366.307C772.606 365.966 773.197 365.485 773.614 364.864C774.03 364.242 774.242 363.515 774.25 362.682C774.242 361.803 774.015 361.027 773.568 360.352C773.121 359.678 772.511 359.148 771.739 358.761C770.973 358.375 770.098 358.182 769.114 358.182C768.121 358.182 767.235 358.375 766.455 358.761C765.682 359.148 765.072 359.678 764.625 360.352C764.186 361.027 763.97 361.803 763.977 362.682C763.97 363.515 764.17 364.242 764.58 364.864C764.996 365.485 765.591 365.966 766.364 366.307C767.136 366.648 768.053 366.818 769.114 366.818ZM769.114 355.773C769.947 355.773 770.686 355.606 771.33 355.273C771.981 354.939 772.492 354.473 772.864 353.875C773.235 353.277 773.424 352.576 773.432 351.773C773.424 350.985 773.239 350.299 772.875 349.716C772.511 349.125 772.008 348.67 771.364 348.352C770.72 348.027 769.97 347.864 769.114 347.864C768.242 347.864 767.481 348.027 766.83 348.352C766.178 348.67 765.674 349.125 765.318 349.716C764.962 350.299 764.788 350.985 764.795 351.773C764.788 352.576 764.966 353.277 765.33 353.875C765.701 354.473 766.212 354.939 766.864 355.273C767.515 355.606 768.265 355.773 769.114 355.773ZM783.923 362.636L783.878 359.318H784.423L792.06 351.545H795.378L787.241 359.773H787.014L783.923 362.636ZM781.423 369V345.727H784.105V369H781.423ZM792.514 369L785.696 360.364L787.605 358.5L795.923 369H792.514ZM798.83 369V351.545H801.42V354.273H801.648C802.011 353.341 802.598 352.617 803.409 352.102C804.22 351.58 805.193 351.318 806.33 351.318C807.481 351.318 808.439 351.58 809.205 352.102C809.977 352.617 810.58 353.341 811.011 354.273H811.193C811.64 353.371 812.311 352.655 813.205 352.125C814.098 351.587 815.17 351.318 816.42 351.318C817.981 351.318 819.258 351.807 820.25 352.784C821.242 353.754 821.739 355.265 821.739 357.318V369H819.057V357.318C819.057 356.03 818.705 355.11 818 354.557C817.295 354.004 816.466 353.727 815.511 353.727C814.284 353.727 813.333 354.098 812.659 354.841C811.985 355.576 811.648 356.508 811.648 357.636V369H808.92V357.045C808.92 356.053 808.598 355.254 807.955 354.648C807.311 354.034 806.481 353.727 805.466 353.727C804.769 353.727 804.117 353.913 803.511 354.284C802.913 354.655 802.428 355.17 802.057 355.83C801.693 356.481 801.511 357.235 801.511 358.091V369H798.83Z" fill="white"/>
<path d="M830.43 356V354.786L834.991 349.793C835.527 349.208 835.968 348.7 836.314 348.268C836.66 347.831 836.917 347.422 837.083 347.04C837.254 346.653 837.339 346.248 837.339 345.825C837.339 345.339 837.223 344.919 836.989 344.564C836.759 344.208 836.444 343.934 836.044 343.74C835.644 343.547 835.194 343.45 834.695 343.45C834.164 343.45 833.701 343.56 833.305 343.781C832.913 343.997 832.61 344.3 832.394 344.692C832.182 345.083 832.077 345.542 832.077 346.068H830.484C830.484 345.259 830.671 344.548 831.044 343.936C831.418 343.324 831.926 342.848 832.569 342.506C833.217 342.164 833.943 341.993 834.749 341.993C835.558 341.993 836.276 342.164 836.901 342.506C837.526 342.848 838.016 343.309 838.372 343.889C838.727 344.469 838.905 345.115 838.905 345.825C838.905 346.334 838.813 346.831 838.628 347.316C838.448 347.798 838.133 348.335 837.684 348.929C837.238 349.518 836.62 350.238 835.828 351.088L832.724 354.408V354.516H839.148V356H830.43Z" fill="white"/>
<path d="M599.696 254.727L605.321 272.409H605.537L611.173 254.727H616.628L608.605 278H602.264L594.23 254.727H599.696ZM622.378 278.33C621.264 278.33 620.272 278.136 619.401 277.75C618.529 277.356 617.84 276.777 617.332 276.011C616.832 275.239 616.582 274.277 616.582 273.125C616.582 272.155 616.76 271.341 617.116 270.682C617.473 270.023 617.957 269.492 618.571 269.091C619.185 268.689 619.882 268.386 620.662 268.182C621.45 267.977 622.276 267.833 623.139 267.75C624.154 267.644 624.973 267.545 625.594 267.455C626.215 267.356 626.666 267.212 626.946 267.023C627.226 266.833 627.366 266.553 627.366 266.182V266.114C627.366 265.394 627.139 264.837 626.685 264.443C626.238 264.049 625.601 263.852 624.776 263.852C623.904 263.852 623.211 264.045 622.696 264.432C622.181 264.811 621.84 265.288 621.673 265.864L617.196 265.5C617.423 264.439 617.87 263.523 618.537 262.75C619.204 261.97 620.063 261.371 621.116 260.955C622.177 260.53 623.404 260.318 624.798 260.318C625.768 260.318 626.696 260.432 627.582 260.659C628.476 260.886 629.268 261.239 629.957 261.716C630.654 262.193 631.204 262.807 631.605 263.557C632.007 264.299 632.207 265.189 632.207 266.227V278H627.616V275.58H627.48C627.2 276.125 626.825 276.606 626.355 277.023C625.885 277.432 625.321 277.754 624.662 277.989C624.003 278.216 623.241 278.33 622.378 278.33ZM623.764 274.989C624.476 274.989 625.105 274.848 625.651 274.568C626.196 274.28 626.624 273.894 626.935 273.409C627.245 272.924 627.401 272.375 627.401 271.761V269.909C627.249 270.008 627.041 270.098 626.776 270.182C626.518 270.258 626.226 270.33 625.901 270.398C625.575 270.458 625.249 270.515 624.923 270.568C624.598 270.614 624.302 270.655 624.037 270.693C623.469 270.777 622.973 270.909 622.548 271.091C622.124 271.273 621.795 271.519 621.56 271.83C621.325 272.133 621.207 272.511 621.207 272.966C621.207 273.625 621.446 274.129 621.923 274.477C622.408 274.818 623.022 274.989 623.764 274.989ZM643.849 278.341C642.062 278.341 640.524 277.962 639.236 277.205C637.955 276.439 636.971 275.379 636.281 274.023C635.599 272.667 635.259 271.106 635.259 269.341C635.259 267.553 635.603 265.985 636.293 264.636C636.99 263.28 637.978 262.223 639.259 261.466C640.539 260.701 642.062 260.318 643.827 260.318C645.349 260.318 646.683 260.595 647.827 261.148C648.971 261.701 649.876 262.477 650.543 263.477C651.209 264.477 651.577 265.652 651.645 267H647.077C646.948 266.129 646.607 265.428 646.054 264.898C645.509 264.36 644.793 264.091 643.906 264.091C643.156 264.091 642.501 264.295 641.94 264.705C641.387 265.106 640.955 265.693 640.645 266.466C640.334 267.239 640.179 268.174 640.179 269.273C640.179 270.386 640.33 271.333 640.634 272.114C640.944 272.894 641.38 273.489 641.94 273.898C642.501 274.307 643.156 274.511 643.906 274.511C644.459 274.511 644.955 274.398 645.395 274.17C645.842 273.943 646.209 273.614 646.497 273.182C646.793 272.742 646.986 272.216 647.077 271.602H651.645C651.569 272.936 651.205 274.11 650.554 275.125C649.91 276.133 649.02 276.92 647.884 277.489C646.747 278.057 645.402 278.341 643.849 278.341ZM659.722 278.33C658.608 278.33 657.616 278.136 656.744 277.75C655.873 277.356 655.184 276.777 654.676 276.011C654.176 275.239 653.926 274.277 653.926 273.125C653.926 272.155 654.104 271.341 654.46 270.682C654.816 270.023 655.301 269.492 655.915 269.091C656.528 268.689 657.225 268.386 658.006 268.182C658.794 267.977 659.619 267.833 660.483 267.75C661.498 267.644 662.316 267.545 662.938 267.455C663.559 267.356 664.009 267.212 664.29 267.023C664.57 266.833 664.71 266.553 664.71 266.182V266.114C664.71 265.394 664.483 264.837 664.028 264.443C663.581 264.049 662.945 263.852 662.119 263.852C661.248 263.852 660.555 264.045 660.04 264.432C659.525 264.811 659.184 265.288 659.017 265.864L654.54 265.5C654.767 264.439 655.214 263.523 655.881 262.75C656.547 261.97 657.407 261.371 658.46 260.955C659.521 260.53 660.748 260.318 662.142 260.318C663.112 260.318 664.04 260.432 664.926 260.659C665.82 260.886 666.612 261.239 667.301 261.716C667.998 262.193 668.547 262.807 668.949 263.557C669.35 264.299 669.551 265.189 669.551 266.227V278H664.96V275.58H664.824C664.544 276.125 664.169 276.606 663.699 277.023C663.229 277.432 662.665 277.754 662.006 277.989C661.347 278.216 660.585 278.33 659.722 278.33ZM661.108 274.989C661.82 274.989 662.449 274.848 662.994 274.568C663.54 274.28 663.968 273.894 664.278 273.409C664.589 272.924 664.744 272.375 664.744 271.761V269.909C664.593 270.008 664.384 270.098 664.119 270.182C663.862 270.258 663.57 270.33 663.244 270.398C662.919 270.458 662.593 270.515 662.267 270.568C661.941 270.614 661.646 270.655 661.381 270.693C660.813 270.777 660.316 270.909 659.892 271.091C659.468 271.273 659.138 271.519 658.903 271.83C658.669 272.133 658.551 272.511 658.551 272.966C658.551 273.625 658.79 274.129 659.267 274.477C659.752 274.818 660.366 274.989 661.108 274.989ZM678.148 267.909V278H673.307V260.545H677.92V263.625H678.125C678.511 262.61 679.159 261.807 680.068 261.216C680.977 260.617 682.08 260.318 683.375 260.318C684.587 260.318 685.644 260.583 686.545 261.114C687.447 261.644 688.148 262.402 688.648 263.386C689.148 264.364 689.398 265.53 689.398 266.886V278H684.557V267.75C684.564 266.682 684.292 265.848 683.739 265.25C683.186 264.644 682.424 264.341 681.455 264.341C680.803 264.341 680.227 264.481 679.727 264.761C679.235 265.042 678.848 265.451 678.568 265.989C678.295 266.519 678.155 267.159 678.148 267.909ZM702.497 260.545V264.182H691.986V260.545H702.497ZM694.372 256.364H699.213V272.636C699.213 273.083 699.281 273.432 699.418 273.682C699.554 273.924 699.743 274.095 699.986 274.193C700.236 274.292 700.524 274.341 700.849 274.341C701.077 274.341 701.304 274.322 701.531 274.284C701.759 274.239 701.933 274.205 702.054 274.182L702.815 277.784C702.573 277.86 702.232 277.947 701.793 278.045C701.353 278.152 700.819 278.216 700.19 278.239C699.024 278.284 698.001 278.129 697.122 277.773C696.251 277.417 695.573 276.864 695.088 276.114C694.603 275.364 694.365 274.417 694.372 273.273V256.364ZM720.943 278.341C719.178 278.341 717.652 277.966 716.364 277.216C715.083 276.458 714.095 275.405 713.398 274.057C712.701 272.701 712.352 271.129 712.352 269.341C712.352 267.538 712.701 265.962 713.398 264.614C714.095 263.258 715.083 262.205 716.364 261.455C717.652 260.697 719.178 260.318 720.943 260.318C722.708 260.318 724.231 260.697 725.511 261.455C726.799 262.205 727.792 263.258 728.489 264.614C729.186 265.962 729.534 267.538 729.534 269.341C729.534 271.129 729.186 272.701 728.489 274.057C727.792 275.405 726.799 276.458 725.511 277.216C724.231 277.966 722.708 278.341 720.943 278.341ZM720.966 274.591C721.769 274.591 722.439 274.364 722.977 273.909C723.515 273.447 723.92 272.818 724.193 272.023C724.473 271.227 724.614 270.322 724.614 269.307C724.614 268.292 724.473 267.386 724.193 266.591C723.92 265.795 723.515 265.167 722.977 264.705C722.439 264.242 721.769 264.011 720.966 264.011C720.155 264.011 719.473 264.242 718.92 264.705C718.375 265.167 717.962 265.795 717.682 266.591C717.409 267.386 717.273 268.292 717.273 269.307C717.273 270.322 717.409 271.227 717.682 272.023C717.962 272.818 718.375 273.447 718.92 273.909C719.473 274.364 720.155 274.591 720.966 274.591ZM732.682 278V260.545H737.375V263.591H737.557C737.875 262.508 738.409 261.689 739.159 261.136C739.909 260.576 740.773 260.295 741.75 260.295C741.992 260.295 742.254 260.311 742.534 260.341C742.814 260.371 743.061 260.413 743.273 260.466V264.761C743.045 264.693 742.731 264.633 742.33 264.58C741.928 264.527 741.561 264.5 741.227 264.5C740.515 264.5 739.879 264.655 739.318 264.966C738.765 265.269 738.326 265.693 738 266.239C737.682 266.784 737.523 267.413 737.523 268.125V278H732.682ZM764.375 270.568V260.545H769.216V278H764.568V274.83H764.386C763.992 275.852 763.337 276.674 762.42 277.295C761.511 277.917 760.402 278.227 759.091 278.227C757.924 278.227 756.898 277.962 756.011 277.432C755.125 276.902 754.432 276.148 753.932 275.17C753.439 274.193 753.189 273.023 753.182 271.659V260.545H758.023V270.795C758.03 271.826 758.307 272.64 758.852 273.239C759.398 273.837 760.129 274.136 761.045 274.136C761.629 274.136 762.174 274.004 762.682 273.739C763.189 273.466 763.598 273.064 763.909 272.534C764.227 272.004 764.383 271.348 764.375 270.568ZM777.929 267.909V278H773.088V260.545H777.702V263.625H777.906C778.293 262.61 778.94 261.807 779.849 261.216C780.759 260.617 781.861 260.318 783.156 260.318C784.368 260.318 785.425 260.583 786.327 261.114C787.228 261.644 787.929 262.402 788.429 263.386C788.929 264.364 789.179 265.53 789.179 266.886V278H784.338V267.75C784.346 266.682 784.073 265.848 783.52 265.25C782.967 264.644 782.205 264.341 781.236 264.341C780.584 264.341 780.009 264.481 779.509 264.761C779.016 265.042 778.63 265.451 778.349 265.989C778.077 266.519 777.937 267.159 777.929 267.909ZM804.188 270.568V260.545H809.028V278H804.381V274.83H804.199C803.805 275.852 803.15 276.674 802.233 277.295C801.324 277.917 800.214 278.227 798.903 278.227C797.737 278.227 796.71 277.962 795.824 277.432C794.938 276.902 794.244 276.148 793.744 275.17C793.252 274.193 793.002 273.023 792.994 271.659V260.545H797.835V270.795C797.843 271.826 798.119 272.64 798.665 273.239C799.21 273.837 799.941 274.136 800.858 274.136C801.441 274.136 801.987 274.004 802.494 273.739C803.002 273.466 803.411 273.064 803.722 272.534C804.04 272.004 804.195 271.348 804.188 270.568ZM827.423 265.523L822.991 265.795C822.916 265.417 822.753 265.076 822.503 264.773C822.253 264.462 821.923 264.216 821.514 264.034C821.113 263.845 820.632 263.75 820.071 263.75C819.321 263.75 818.688 263.909 818.173 264.227C817.658 264.538 817.401 264.955 817.401 265.477C817.401 265.894 817.567 266.246 817.901 266.534C818.234 266.822 818.806 267.053 819.616 267.227L822.776 267.864C824.473 268.212 825.738 268.773 826.571 269.545C827.404 270.318 827.821 271.333 827.821 272.591C827.821 273.735 827.484 274.739 826.81 275.602C826.143 276.466 825.226 277.14 824.06 277.625C822.901 278.102 821.563 278.341 820.048 278.341C817.738 278.341 815.897 277.86 814.526 276.898C813.162 275.928 812.363 274.61 812.128 272.943L816.889 272.693C817.033 273.398 817.382 273.936 817.935 274.307C818.488 274.67 819.196 274.852 820.06 274.852C820.908 274.852 821.59 274.689 822.105 274.364C822.628 274.03 822.893 273.602 822.901 273.08C822.893 272.64 822.707 272.28 822.344 272C821.98 271.712 821.42 271.492 820.662 271.341L817.639 270.739C815.935 270.398 814.666 269.807 813.832 268.966C813.007 268.125 812.594 267.053 812.594 265.75C812.594 264.629 812.897 263.663 813.503 262.852C814.116 262.042 814.976 261.417 816.082 260.977C817.196 260.538 818.499 260.318 819.991 260.318C822.196 260.318 823.931 260.784 825.196 261.716C826.469 262.648 827.211 263.917 827.423 265.523ZM838.824 278.341C837.028 278.341 835.483 277.977 834.188 277.25C832.9 276.515 831.907 275.477 831.21 274.136C830.513 272.788 830.165 271.193 830.165 269.352C830.165 267.557 830.513 265.981 831.21 264.625C831.907 263.269 832.888 262.212 834.153 261.455C835.426 260.697 836.919 260.318 838.631 260.318C839.782 260.318 840.854 260.504 841.847 260.875C842.847 261.239 843.718 261.788 844.46 262.523C845.21 263.258 845.794 264.182 846.21 265.295C846.627 266.402 846.835 267.697 846.835 269.182V270.511H832.097V267.511H842.278C842.278 266.814 842.127 266.197 841.824 265.659C841.521 265.121 841.1 264.701 840.562 264.398C840.032 264.087 839.415 263.932 838.71 263.932C837.975 263.932 837.324 264.102 836.756 264.443C836.195 264.777 835.756 265.227 835.438 265.795C835.119 266.356 834.956 266.981 834.949 267.67V270.523C834.949 271.386 835.108 272.133 835.426 272.761C835.752 273.39 836.21 273.875 836.801 274.216C837.392 274.557 838.093 274.727 838.903 274.727C839.441 274.727 839.934 274.652 840.381 274.5C840.828 274.348 841.21 274.121 841.528 273.818C841.847 273.515 842.089 273.144 842.256 272.705L846.733 273C846.506 274.076 846.04 275.015 845.335 275.818C844.638 276.614 843.737 277.235 842.631 277.682C841.532 278.121 840.263 278.341 838.824 278.341ZM856.426 278.284C855.1 278.284 853.9 277.943 852.824 277.261C851.756 276.572 850.907 275.561 850.278 274.227C849.657 272.886 849.347 271.242 849.347 269.295C849.347 267.295 849.669 265.633 850.312 264.307C850.956 262.973 851.813 261.977 852.881 261.318C853.956 260.652 855.134 260.318 856.415 260.318C857.392 260.318 858.206 260.485 858.858 260.818C859.517 261.144 860.047 261.553 860.449 262.045C860.858 262.53 861.169 263.008 861.381 263.477H861.528V254.727H866.358V278H861.585V275.205H861.381C861.153 275.689 860.831 276.17 860.415 276.648C860.006 277.117 859.472 277.508 858.812 277.818C858.161 278.129 857.366 278.284 856.426 278.284ZM857.96 274.432C858.741 274.432 859.4 274.22 859.938 273.795C860.483 273.364 860.9 272.761 861.188 271.989C861.483 271.216 861.631 270.311 861.631 269.273C861.631 268.235 861.487 267.333 861.199 266.568C860.911 265.803 860.494 265.212 859.949 264.795C859.403 264.379 858.741 264.17 857.96 264.17C857.165 264.17 856.494 264.386 855.949 264.818C855.403 265.25 854.991 265.848 854.71 266.614C854.43 267.379 854.29 268.265 854.29 269.273C854.29 270.288 854.43 271.186 854.71 271.966C854.998 272.739 855.411 273.345 855.949 273.784C856.494 274.216 857.165 274.432 857.96 274.432ZM877.744 284.545V260.545H882.517V263.477H882.733C882.945 263.008 883.252 262.53 883.653 262.045C884.063 261.553 884.593 261.144 885.244 260.818C885.903 260.485 886.722 260.318 887.699 260.318C888.972 260.318 890.146 260.652 891.222 261.318C892.297 261.977 893.157 262.973 893.801 264.307C894.445 265.633 894.767 267.295 894.767 269.295C894.767 271.242 894.453 272.886 893.824 274.227C893.203 275.561 892.354 276.572 891.278 277.261C890.21 277.943 889.013 278.284 887.688 278.284C886.748 278.284 885.949 278.129 885.29 277.818C884.638 277.508 884.104 277.117 883.688 276.648C883.271 276.17 882.953 275.689 882.733 275.205H882.585V284.545H877.744ZM882.483 269.273C882.483 270.311 882.627 271.216 882.915 271.989C883.203 272.761 883.619 273.364 884.165 273.795C884.71 274.22 885.373 274.432 886.153 274.432C886.941 274.432 887.608 274.216 888.153 273.784C888.699 273.345 889.112 272.739 889.392 271.966C889.68 271.186 889.824 270.288 889.824 269.273C889.824 268.265 889.684 267.379 889.403 266.614C889.123 265.848 888.71 265.25 888.165 264.818C887.619 264.386 886.949 264.17 886.153 264.17C885.366 264.17 884.699 264.379 884.153 264.795C883.616 265.212 883.203 265.803 882.915 266.568C882.627 267.333 882.483 268.235 882.483 269.273ZM909.188 270.568V260.545H914.028V278H909.381V274.83H909.199C908.805 275.852 908.15 276.674 907.233 277.295C906.324 277.917 905.214 278.227 903.903 278.227C902.737 278.227 901.71 277.962 900.824 277.432C899.938 276.902 899.244 276.148 898.744 275.17C898.252 274.193 898.002 273.023 897.994 271.659V260.545H902.835V270.795C902.843 271.826 903.119 272.64 903.665 273.239C904.21 273.837 904.941 274.136 905.858 274.136C906.441 274.136 906.987 274.004 907.494 273.739C908.002 273.466 908.411 273.064 908.722 272.534C909.04 272.004 909.195 271.348 909.188 270.568ZM917.991 278V254.727H922.832V263.477H922.98C923.192 263.008 923.499 262.53 923.901 262.045C924.31 261.553 924.84 261.144 925.491 260.818C926.151 260.485 926.969 260.318 927.946 260.318C929.219 260.318 930.393 260.652 931.469 261.318C932.545 261.977 933.404 262.973 934.048 264.307C934.692 265.633 935.014 267.295 935.014 269.295C935.014 271.242 934.7 272.886 934.071 274.227C933.45 275.561 932.601 276.572 931.526 277.261C930.457 277.943 929.26 278.284 927.935 278.284C926.995 278.284 926.196 278.129 925.537 277.818C924.885 277.508 924.351 277.117 923.935 276.648C923.518 276.17 923.2 275.689 922.98 275.205H922.764V278H917.991ZM922.73 269.273C922.73 270.311 922.874 271.216 923.162 271.989C923.45 272.761 923.866 273.364 924.412 273.795C924.957 274.22 925.62 274.432 926.401 274.432C927.188 274.432 927.855 274.216 928.401 273.784C928.946 273.345 929.359 272.739 929.639 271.966C929.927 271.186 930.071 270.288 930.071 269.273C930.071 268.265 929.931 267.379 929.651 266.614C929.37 265.848 928.957 265.25 928.412 264.818C927.866 264.386 927.196 264.17 926.401 264.17C925.613 264.17 924.946 264.379 924.401 264.795C923.863 265.212 923.45 265.803 923.162 266.568C922.874 267.333 922.73 268.235 922.73 269.273ZM943.085 254.727V278H938.244V254.727H943.085ZM946.963 278V260.545H951.804V278H946.963ZM949.395 258.295C948.675 258.295 948.058 258.057 947.543 257.58C947.035 257.095 946.781 256.515 946.781 255.841C946.781 255.174 947.035 254.602 947.543 254.125C948.058 253.64 948.675 253.398 949.395 253.398C950.115 253.398 950.728 253.64 951.236 254.125C951.751 254.602 952.009 255.174 952.009 255.841C952.009 256.515 951.751 257.095 951.236 257.58C950.728 258.057 950.115 258.295 949.395 258.295ZM963.568 278.341C961.78 278.341 960.242 277.962 958.955 277.205C957.674 276.439 956.689 275.379 956 274.023C955.318 272.667 954.977 271.106 954.977 269.341C954.977 267.553 955.322 265.985 956.011 264.636C956.708 263.28 957.697 262.223 958.977 261.466C960.258 260.701 961.78 260.318 963.545 260.318C965.068 260.318 966.402 260.595 967.545 261.148C968.689 261.701 969.595 262.477 970.261 263.477C970.928 264.477 971.295 265.652 971.364 267H966.795C966.667 266.129 966.326 265.428 965.773 264.898C965.227 264.36 964.511 264.091 963.625 264.091C962.875 264.091 962.22 264.295 961.659 264.705C961.106 265.106 960.674 265.693 960.364 266.466C960.053 267.239 959.898 268.174 959.898 269.273C959.898 270.386 960.049 271.333 960.352 272.114C960.663 272.894 961.098 273.489 961.659 273.898C962.22 274.307 962.875 274.511 963.625 274.511C964.178 274.511 964.674 274.398 965.114 274.17C965.561 273.943 965.928 273.614 966.216 273.182C966.511 272.742 966.705 272.216 966.795 271.602H971.364C971.288 272.936 970.924 274.11 970.273 275.125C969.629 276.133 968.739 276.92 967.602 277.489C966.466 278.057 965.121 278.341 963.568 278.341ZM647.007 298.727V322H642.166V298.727H647.007ZM655.862 322.33C654.749 322.33 653.756 322.136 652.885 321.75C652.014 321.356 651.324 320.777 650.817 320.011C650.317 319.239 650.067 318.277 650.067 317.125C650.067 316.155 650.245 315.341 650.601 314.682C650.957 314.023 651.442 313.492 652.055 313.091C652.669 312.689 653.366 312.386 654.146 312.182C654.934 311.977 655.76 311.833 656.624 311.75C657.639 311.644 658.457 311.545 659.078 311.455C659.699 311.356 660.15 311.212 660.43 311.023C660.711 310.833 660.851 310.553 660.851 310.182V310.114C660.851 309.394 660.624 308.837 660.169 308.443C659.722 308.049 659.086 307.852 658.26 307.852C657.389 307.852 656.696 308.045 656.18 308.432C655.665 308.811 655.324 309.288 655.158 309.864L650.68 309.5C650.908 308.439 651.355 307.523 652.021 306.75C652.688 305.97 653.548 305.371 654.601 304.955C655.661 304.53 656.889 304.318 658.283 304.318C659.252 304.318 660.18 304.432 661.067 304.659C661.961 304.886 662.752 305.239 663.442 305.716C664.139 306.193 664.688 306.807 665.089 307.557C665.491 308.299 665.692 309.189 665.692 310.227V322H661.101V319.58H660.964C660.684 320.125 660.309 320.606 659.839 321.023C659.37 321.432 658.805 321.754 658.146 321.989C657.487 322.216 656.726 322.33 655.862 322.33ZM657.249 318.989C657.961 318.989 658.589 318.848 659.135 318.568C659.68 318.28 660.108 317.894 660.419 317.409C660.73 316.924 660.885 316.375 660.885 315.761V313.909C660.733 314.008 660.525 314.098 660.26 314.182C660.002 314.258 659.711 314.33 659.385 314.398C659.059 314.458 658.733 314.515 658.408 314.568C658.082 314.614 657.786 314.655 657.521 314.693C656.953 314.777 656.457 314.909 656.033 315.091C655.608 315.273 655.279 315.519 655.044 315.83C654.809 316.133 654.692 316.511 654.692 316.966C654.692 317.625 654.93 318.129 655.408 318.477C655.893 318.818 656.506 318.989 657.249 318.989ZM674.288 311.909V322H669.447V304.545H674.061V307.625H674.266C674.652 306.61 675.3 305.807 676.209 305.216C677.118 304.617 678.22 304.318 679.516 304.318C680.728 304.318 681.785 304.583 682.686 305.114C683.588 305.644 684.288 306.402 684.788 307.386C685.288 308.364 685.538 309.53 685.538 310.886V322H680.697V311.75C680.705 310.682 680.432 309.848 679.879 309.25C679.326 308.644 678.565 308.341 677.595 308.341C676.944 308.341 676.368 308.481 675.868 308.761C675.375 309.042 674.989 309.451 674.709 309.989C674.436 310.519 674.296 311.159 674.288 311.909ZM695.786 322.284C694.46 322.284 693.259 321.943 692.183 321.261C691.115 320.572 690.267 319.561 689.638 318.227C689.017 316.886 688.706 315.242 688.706 313.295C688.706 311.295 689.028 309.633 689.672 308.307C690.316 306.973 691.172 305.977 692.24 305.318C693.316 304.652 694.494 304.318 695.774 304.318C696.751 304.318 697.566 304.485 698.217 304.818C698.876 305.144 699.407 305.553 699.808 306.045C700.217 306.53 700.528 307.008 700.74 307.477H700.888V298.727H705.717V322H700.945V319.205H700.74C700.513 319.689 700.191 320.17 699.774 320.648C699.365 321.117 698.831 321.508 698.172 321.818C697.52 322.129 696.725 322.284 695.786 322.284ZM697.32 318.432C698.1 318.432 698.759 318.22 699.297 317.795C699.842 317.364 700.259 316.761 700.547 315.989C700.842 315.216 700.99 314.311 700.99 313.273C700.99 312.235 700.846 311.333 700.558 310.568C700.27 309.803 699.854 309.212 699.308 308.795C698.763 308.379 698.1 308.17 697.32 308.17C696.524 308.17 695.854 308.386 695.308 308.818C694.763 309.25 694.35 309.848 694.07 310.614C693.789 311.379 693.649 312.265 693.649 313.273C693.649 314.288 693.789 315.186 694.07 315.966C694.357 316.739 694.77 317.345 695.308 317.784C695.854 318.216 696.524 318.432 697.32 318.432ZM717.104 322V304.545H721.945V322H717.104ZM719.536 302.295C718.816 302.295 718.198 302.057 717.683 301.58C717.176 301.095 716.922 300.515 716.922 299.841C716.922 299.174 717.176 298.602 717.683 298.125C718.198 297.64 718.816 297.398 719.536 297.398C720.255 297.398 720.869 297.64 721.376 298.125C721.892 298.602 722.149 299.174 722.149 299.841C722.149 300.515 721.892 301.095 721.376 301.58C720.869 302.057 720.255 302.295 719.536 302.295ZM730.663 311.909V322H725.822V304.545H730.436V307.625H730.641C731.027 306.61 731.675 305.807 732.584 305.216C733.493 304.617 734.595 304.318 735.891 304.318C737.103 304.318 738.16 304.583 739.061 305.114C739.963 305.644 740.663 306.402 741.163 307.386C741.663 308.364 741.913 309.53 741.913 310.886V322H737.072V311.75C737.08 310.682 736.807 309.848 736.254 309.25C735.701 308.644 734.94 308.341 733.97 308.341C733.319 308.341 732.743 308.481 732.243 308.761C731.75 309.042 731.364 309.451 731.084 309.989C730.811 310.519 730.671 311.159 730.663 311.909ZM773.76 306.875H768.783C768.692 306.231 768.506 305.659 768.226 305.159C767.946 304.652 767.586 304.22 767.146 303.864C766.707 303.508 766.199 303.235 765.624 303.045C765.055 302.856 764.438 302.761 763.771 302.761C762.567 302.761 761.518 303.061 760.624 303.659C759.73 304.25 759.036 305.114 758.544 306.25C758.052 307.379 757.805 308.75 757.805 310.364C757.805 312.023 758.052 313.417 758.544 314.545C759.044 315.674 759.741 316.527 760.635 317.102C761.529 317.678 762.563 317.966 763.737 317.966C764.396 317.966 765.006 317.879 765.567 317.705C766.135 317.53 766.639 317.277 767.078 316.943C767.518 316.602 767.881 316.189 768.169 315.705C768.464 315.22 768.669 314.667 768.783 314.045L773.76 314.068C773.631 315.136 773.309 316.167 772.794 317.159C772.286 318.144 771.601 319.027 770.737 319.807C769.881 320.58 768.858 321.193 767.669 321.648C766.487 322.095 765.15 322.318 763.658 322.318C761.582 322.318 759.726 321.848 758.089 320.909C756.461 319.97 755.173 318.61 754.226 316.83C753.286 315.049 752.817 312.894 752.817 310.364C752.817 307.826 753.294 305.667 754.249 303.886C755.203 302.106 756.499 300.75 758.135 299.818C759.771 298.879 761.612 298.409 763.658 298.409C765.006 298.409 766.256 298.598 767.408 298.977C768.567 299.356 769.593 299.909 770.487 300.636C771.381 301.356 772.108 302.239 772.669 303.284C773.237 304.33 773.601 305.527 773.76 306.875ZM782.175 322.33C781.061 322.33 780.069 322.136 779.197 321.75C778.326 321.356 777.637 320.777 777.129 320.011C776.629 319.239 776.379 318.277 776.379 317.125C776.379 316.155 776.557 315.341 776.913 314.682C777.269 314.023 777.754 313.492 778.368 313.091C778.982 312.689 779.679 312.386 780.459 312.182C781.247 311.977 782.072 311.833 782.936 311.75C783.951 311.644 784.769 311.545 785.391 311.455C786.012 311.356 786.463 311.212 786.743 311.023C787.023 310.833 787.163 310.553 787.163 310.182V310.114C787.163 309.394 786.936 308.837 786.482 308.443C786.035 308.049 785.398 307.852 784.572 307.852C783.701 307.852 783.008 308.045 782.493 308.432C781.978 308.811 781.637 309.288 781.47 309.864L776.993 309.5C777.22 308.439 777.667 307.523 778.334 306.75C779 305.97 779.86 305.371 780.913 304.955C781.974 304.53 783.201 304.318 784.595 304.318C785.565 304.318 786.493 304.432 787.379 304.659C788.273 304.886 789.065 305.239 789.754 305.716C790.451 306.193 791 306.807 791.402 307.557C791.804 308.299 792.004 309.189 792.004 310.227V322H787.413V319.58H787.277C786.997 320.125 786.622 320.606 786.152 321.023C785.682 321.432 785.118 321.754 784.459 321.989C783.8 322.216 783.038 322.33 782.175 322.33ZM783.561 318.989C784.273 318.989 784.902 318.848 785.447 318.568C785.993 318.28 786.421 317.894 786.732 317.409C787.042 316.924 787.197 316.375 787.197 315.761V313.909C787.046 314.008 786.838 314.098 786.572 314.182C786.315 314.258 786.023 314.33 785.697 314.398C785.372 314.458 785.046 314.515 784.72 314.568C784.394 314.614 784.099 314.655 783.834 314.693C783.266 314.777 782.769 314.909 782.345 315.091C781.921 315.273 781.591 315.519 781.357 315.83C781.122 316.133 781.004 316.511 781.004 316.966C781.004 317.625 781.243 318.129 781.72 318.477C782.205 318.818 782.819 318.989 783.561 318.989ZM795.76 328.545V304.545H800.533V307.477H800.749C800.961 307.008 801.268 306.53 801.669 306.045C802.078 305.553 802.608 305.144 803.26 304.818C803.919 304.485 804.737 304.318 805.714 304.318C806.987 304.318 808.161 304.652 809.237 305.318C810.313 305.977 811.173 306.973 811.817 308.307C812.461 309.633 812.783 311.295 812.783 313.295C812.783 315.242 812.468 316.886 811.839 318.227C811.218 319.561 810.37 320.572 809.294 321.261C808.226 321.943 807.029 322.284 805.703 322.284C804.764 322.284 803.964 322.129 803.305 321.818C802.654 321.508 802.12 321.117 801.703 320.648C801.286 320.17 800.968 319.689 800.749 319.205H800.601V328.545H795.76ZM800.499 313.273C800.499 314.311 800.643 315.216 800.93 315.989C801.218 316.761 801.635 317.364 802.18 317.795C802.726 318.22 803.389 318.432 804.169 318.432C804.957 318.432 805.624 318.216 806.169 317.784C806.714 317.345 807.127 316.739 807.408 315.966C807.696 315.186 807.839 314.288 807.839 313.273C807.839 312.265 807.699 311.379 807.419 310.614C807.139 309.848 806.726 309.25 806.18 308.818C805.635 308.386 804.964 308.17 804.169 308.17C803.381 308.17 802.714 308.379 802.169 308.795C801.631 309.212 801.218 309.803 800.93 310.568C800.643 311.333 800.499 312.235 800.499 313.273ZM823.964 322.341C822.169 322.341 820.624 321.977 819.328 321.25C818.04 320.515 817.048 319.477 816.351 318.136C815.654 316.788 815.305 315.193 815.305 313.352C815.305 311.557 815.654 309.981 816.351 308.625C817.048 307.269 818.029 306.212 819.294 305.455C820.567 304.697 822.059 304.318 823.771 304.318C824.923 304.318 825.995 304.504 826.987 304.875C827.987 305.239 828.858 305.788 829.601 306.523C830.351 307.258 830.934 308.182 831.351 309.295C831.768 310.402 831.976 311.697 831.976 313.182V314.511H817.237V311.511H827.419C827.419 310.814 827.268 310.197 826.964 309.659C826.661 309.121 826.241 308.701 825.703 308.398C825.173 308.087 824.555 307.932 823.851 307.932C823.116 307.932 822.464 308.102 821.896 308.443C821.336 308.777 820.896 309.227 820.578 309.795C820.26 310.356 820.097 310.981 820.089 311.67V314.523C820.089 315.386 820.249 316.133 820.567 316.761C820.893 317.39 821.351 317.875 821.942 318.216C822.533 318.557 823.233 318.727 824.044 318.727C824.582 318.727 825.074 318.652 825.521 318.5C825.968 318.348 826.351 318.121 826.669 317.818C826.987 317.515 827.23 317.144 827.396 316.705L831.874 317C831.646 318.076 831.18 319.015 830.476 319.818C829.779 320.614 828.877 321.235 827.771 321.682C826.673 322.121 825.404 322.341 823.964 322.341ZM841.746 302.784V298.727H860.859V302.784H853.734V322H848.871V302.784H841.746ZM869.271 322.341C867.506 322.341 865.98 321.966 864.692 321.216C863.411 320.458 862.423 319.405 861.726 318.057C861.029 316.701 860.68 315.129 860.68 313.341C860.68 311.538 861.029 309.962 861.726 308.614C862.423 307.258 863.411 306.205 864.692 305.455C865.98 304.697 867.506 304.318 869.271 304.318C871.036 304.318 872.559 304.697 873.839 305.455C875.127 306.205 876.12 307.258 876.817 308.614C877.514 309.962 877.862 311.538 877.862 313.341C877.862 315.129 877.514 316.701 876.817 318.057C876.12 319.405 875.127 320.458 873.839 321.216C872.559 321.966 871.036 322.341 869.271 322.341ZM869.294 318.591C870.097 318.591 870.768 318.364 871.305 317.909C871.843 317.447 872.249 316.818 872.521 316.023C872.802 315.227 872.942 314.322 872.942 313.307C872.942 312.292 872.802 311.386 872.521 310.591C872.249 309.795 871.843 309.167 871.305 308.705C870.768 308.242 870.097 308.011 869.294 308.011C868.483 308.011 867.802 308.242 867.249 308.705C866.703 309.167 866.29 309.795 866.01 310.591C865.737 311.386 865.601 312.292 865.601 313.307C865.601 314.322 865.737 315.227 866.01 316.023C866.29 316.818 866.703 317.447 867.249 317.909C867.802 318.364 868.483 318.591 869.294 318.591ZM884.016 322L879.266 304.545H884.163L886.868 316.273H887.027L889.845 304.545H894.652L897.516 316.205H897.663L900.322 304.545H905.209L900.47 322H895.345L892.345 311.023H892.129L889.129 322H884.016ZM912.632 311.909V322H907.791V304.545H912.405V307.625H912.609C912.996 306.61 913.643 305.807 914.553 305.216C915.462 304.617 916.564 304.318 917.859 304.318C919.071 304.318 920.128 304.583 921.03 305.114C921.931 305.644 922.632 306.402 923.132 307.386C923.632 308.364 923.882 309.53 923.882 310.886V322H919.041V311.75C919.049 310.682 918.776 309.848 918.223 309.25C917.67 308.644 916.909 308.341 915.939 308.341C915.287 308.341 914.712 308.481 914.212 308.761C913.719 309.042 913.333 309.451 913.053 309.989C912.78 310.519 912.64 311.159 912.632 311.909Z" fill="white"/>
</svg>
